<svg id="my-svg" width="100%" xmlns="http://www.w3.org/2000/svg" xmlns:xlink="http://www.w3.org/1999/xlink" class="flowchart" style="max-width: 4525.12px; background-color: white;" viewBox="0 0 4525.12060546875 686.984375" role="graphics-document document" aria-roledescription="flowchart-v2"><style>#my-svg{font-family:"trebuchet ms",verdana,arial,sans-serif;font-size:16px;fill:#333;}@keyframes edge-animation-frame{from{stroke-dashoffset:0;}}@keyframes dash{to{stroke-dashoffset:0;}}#my-svg .edge-animation-slow{stroke-dasharray:9,5!important;stroke-dashoffset:900;animation:dash 50s linear infinite;stroke-linecap:round;}#my-svg .edge-animation-fast{stroke-dasharray:9,5!important;stroke-dashoffset:900;animation:dash 20s linear infinite;stroke-linecap:round;}#my-svg .error-icon{fill:#552222;}#my-svg .error-text{fill:#552222;stroke:#552222;}#my-svg .edge-thickness-normal{stroke-width:1px;}#my-svg .edge-thickness-thick{stroke-width:3.5px;}#my-svg .edge-pattern-solid{stroke-dasharray:0;}#my-svg .edge-thickness-invisible{stroke-width:0;fill:none;}#my-svg .edge-pattern-dashed{stroke-dasharray:3;}#my-svg .edge-pattern-dotted{stroke-dasharray:2;}#my-svg .marker{fill:#333333;stroke:#333333;}#my-svg .marker.cross{stroke:#333333;}#my-svg svg{font-family:"trebuchet ms",verdana,arial,sans-serif;font-size:16px;}#my-svg p{margin:0;}#my-svg .label{font-family:"trebuchet ms",verdana,arial,sans-serif;color:#333;}#my-svg .cluster-label text{fill:#333;}#my-svg .cluster-label span{color:#333;}#my-svg .cluster-label span p{background-color:transparent;}#my-svg .label text,#my-svg span{fill:#333;color:#333;}#my-svg .node rect,#my-svg .node circle,#my-svg .node ellipse,#my-svg .node polygon,#my-svg .node path{fill:#ECECFF;stroke:#9370DB;stroke-width:1px;}#my-svg .rough-node .label text,#my-svg .node .label text,#my-svg .image-shape .label,#my-svg .icon-shape .label{text-anchor:middle;}#my-svg .node .katex path{fill:#000;stroke:#000;stroke-width:1px;}#my-svg .rough-node .label,#my-svg .node .label,#my-svg .image-shape .label,#my-svg .icon-shape .label{text-align:center;}#my-svg .node.clickable{cursor:pointer;}#my-svg .root .anchor path{fill:#333333!important;stroke-width:0;stroke:#333333;}#my-svg .arrowheadPath{fill:#333333;}#my-svg .edgePath .path{stroke:#333333;stroke-width:1px;}#my-svg .flowchart-link{stroke:#333333;fill:none;}#my-svg .edgeLabel{background-color:rgba(232,232,232, 0.8);text-align:center;}#my-svg .edgeLabel p{background-color:rgba(232,232,232, 0.8);}#my-svg .edgeLabel rect{opacity:0.5;background-color:rgba(232,232,232, 0.8);fill:rgba(232,232,232, 0.8);}#my-svg .labelBkg{background-color:rgba(232, 232, 232, 0.5);}#my-svg .cluster rect{fill:#ffffde;stroke:#aaaa33;stroke-width:1px;}#my-svg .cluster text{fill:#333;}#my-svg .cluster span{color:#333;}#my-svg div.mermaidTooltip{position:absolute;text-align:center;max-width:200px;padding:2px;font-family:"trebuchet ms",verdana,arial,sans-serif;font-size:12px;background:hsl(80, 100%, 96.2745098039%);border:1px solid #aaaa33;border-radius:2px;pointer-events:none;z-index:100;}#my-svg .flowchartTitleText{text-anchor:middle;font-size:18px;fill:#333;}#my-svg rect.text{fill:none;stroke-width:0;}#my-svg .icon-shape,#my-svg .image-shape{background-color:rgba(232,232,232, 0.8);text-align:center;}#my-svg .icon-shape p,#my-svg .image-shape p{background-color:rgba(232,232,232, 0.8);padding:2px;}#my-svg .icon-shape .label rect,#my-svg .image-shape .label rect{opacity:0.5;background-color:rgba(232,232,232, 0.8);fill:rgba(232,232,232, 0.8);}#my-svg .label-icon{display:inline-block;height:1em;overflow:visible;vertical-align:-0.125em;}#my-svg .node .label-icon path{fill:currentColor;stroke:revert;stroke-width:revert;}#my-svg .node .neo-node{stroke:#9370DB;}#my-svg [data-look="neo"].node rect,#my-svg [data-look="neo"].cluster rect,#my-svg [data-look="neo"].node polygon{stroke:#9370DB;filter:drop-shadow(1px 2px 2px rgba(185, 185, 185, 1));}#my-svg [data-look="neo"].node path{stroke:#9370DB;stroke-width:1px;}#my-svg [data-look="neo"].node .outer-path{filter:drop-shadow(1px 2px 2px rgba(185, 185, 185, 1));}#my-svg [data-look="neo"].node .neo-line path{stroke:#9370DB;filter:none;}#my-svg [data-look="neo"].node circle{stroke:#9370DB;filter:drop-shadow(1px 2px 2px rgba(185, 185, 185, 1));}#my-svg [data-look="neo"].node circle .state-start{fill:#000000;}#my-svg [data-look="neo"].icon-shape .icon{fill:#9370DB;filter:drop-shadow(1px 2px 2px rgba(185, 185, 185, 1));}#my-svg [data-look="neo"].icon-shape .icon-neo path{stroke:#9370DB;filter:drop-shadow(1px 2px 2px rgba(185, 185, 185, 1));}#my-svg :root{--mermaid-font-family:"trebuchet ms",verdana,arial,sans-serif;}#my-svg .llm&gt;*{fill:rgb(230, 159, 0)!important;stroke:rgb(138, 97, 0)!important;color:rgb(17, 17, 17)!important;}#my-svg .llm span{fill:rgb(230, 159, 0)!important;stroke:rgb(138, 97, 0)!important;color:rgb(17, 17, 17)!important;}#my-svg .llm tspan{fill:rgb(17, 17, 17)!important;}#my-svg .code&gt;*{fill:rgb(86, 180, 233)!important;stroke:rgb(31, 111, 156)!important;color:rgb(17, 17, 17)!important;}#my-svg .code span{fill:rgb(86, 180, 233)!important;stroke:rgb(31, 111, 156)!important;color:rgb(17, 17, 17)!important;}#my-svg .code tspan{fill:rgb(17, 17, 17)!important;}#my-svg .ext&gt;*{fill:rgb(0, 158, 115)!important;stroke:rgb(0, 103, 76)!important;color:rgb(255, 255, 255)!important;}#my-svg .ext span{fill:rgb(0, 158, 115)!important;stroke:rgb(0, 103, 76)!important;color:rgb(255, 255, 255)!important;}#my-svg .ext tspan{fill:rgb(255, 255, 255)!important;}#my-svg .gate&gt;*{fill:rgb(240, 228, 66)!important;stroke:rgb(154, 143, 0)!important;color:rgb(17, 17, 17)!important;}#my-svg .gate span{fill:rgb(240, 228, 66)!important;stroke:rgb(154, 143, 0)!important;color:rgb(17, 17, 17)!important;}#my-svg .gate tspan{fill:rgb(17, 17, 17)!important;}</style><g><marker id="my-svg_flowchart-v2-pointEnd" class="marker flowchart-v2" viewBox="0 0 10 10" refX="5" refY="5" markerUnits="userSpaceOnUse" markerWidth="8" markerHeight="8" orient="auto"><path d="M 0 0 L 10 5 L 0 10 z" class="arrowMarkerPath" style="stroke-width: 1; stroke-dasharray: 1, 0;"/></marker><marker id="my-svg_flowchart-v2-pointStart" class="marker flowchart-v2" viewBox="0 0 10 10" refX="4.5" refY="5" markerUnits="userSpaceOnUse" markerWidth="8" markerHeight="8" orient="auto"><path d="M 0 5 L 10 10 L 10 0 z" class="arrowMarkerPath" style="stroke-width: 1; stroke-dasharray: 1, 0;"/></marker><marker id="my-svg_flowchart-v2-pointEnd-margin" class="marker flowchart-v2" viewBox="0 0 11.5 14" refX="11.5" refY="7" markerUnits="userSpaceOnUse" markerWidth="10.5" markerHeight="14" orient="auto"><path d="M 0 0 L 11.5 7 L 0 14 z" class="arrowMarkerPath" style="stroke-width: 0; stroke-dasharray: 1, 0;"/></marker><marker id="my-svg_flowchart-v2-pointStart-margin" class="marker flowchart-v2" viewBox="0 0 11.5 14" refX="1" refY="7" markerUnits="userSpaceOnUse" markerWidth="11.5" markerHeight="14" orient="auto"><polygon points="0,7 11.5,14 11.5,0" class="arrowMarkerPath" style="stroke-width: 0; stroke-dasharray: 1, 0;"/></marker><marker id="my-svg_flowchart-v2-circleEnd" class="marker flowchart-v2" viewBox="0 0 10 10" refX="11" refY="5" markerUnits="userSpaceOnUse" markerWidth="11" markerHeight="11" orient="auto"><circle cx="5" cy="5" r="5" class="arrowMarkerPath" style="stroke-width: 1; stroke-dasharray: 1, 0;"/></marker><marker id="my-svg_flowchart-v2-circleStart" class="marker flowchart-v2" viewBox="0 0 10 10" refX="-1" refY="5" markerUnits="userSpaceOnUse" markerWidth="11" markerHeight="11" orient="auto"><circle cx="5" cy="5" r="5" class="arrowMarkerPath" style="stroke-width: 1; stroke-dasharray: 1, 0;"/></marker><marker id="my-svg_flowchart-v2-circleEnd-margin" class="marker flowchart-v2" viewBox="0 0 10 10" refY="5" refX="12.25" markerUnits="userSpaceOnUse" markerWidth="14" markerHeight="14" orient="auto"><circle cx="5" cy="5" r="5" class="arrowMarkerPath" style="stroke-width: 0; stroke-dasharray: 1, 0;"/></marker><marker id="my-svg_flowchart-v2-circleStart-margin" class="marker flowchart-v2" viewBox="0 0 10 10" refX="-2" refY="5" markerUnits="userSpaceOnUse" markerWidth="14" markerHeight="14" orient="auto"><circle cx="5" cy="5" r="5" class="arrowMarkerPath" style="stroke-width: 0; stroke-dasharray: 1, 0;"/></marker><marker id="my-svg_flowchart-v2-crossEnd" class="marker cross flowchart-v2" viewBox="0 0 11 11" refX="12" refY="5.2" markerUnits="userSpaceOnUse" markerWidth="11" markerHeight="11" orient="auto"><path d="M 1,1 l 9,9 M 10,1 l -9,9" class="arrowMarkerPath" style="stroke-width: 2; stroke-dasharray: 1, 0;"/></marker><marker id="my-svg_flowchart-v2-crossStart" class="marker cross flowchart-v2" viewBox="0 0 11 11" refX="-1" refY="5.2" markerUnits="userSpaceOnUse" markerWidth="11" markerHeight="11" orient="auto"><path d="M 1,1 l 9,9 M 10,1 l -9,9" class="arrowMarkerPath" style="stroke-width: 2; stroke-dasharray: 1, 0;"/></marker><marker id="my-svg_flowchart-v2-crossEnd-margin" class="marker cross flowchart-v2" viewBox="0 0 15 15" refX="17.7" refY="7.5" markerUnits="userSpaceOnUse" markerWidth="12" markerHeight="12" orient="auto"><path d="M 1,1 L 14,14 M 1,14 L 14,1" class="arrowMarkerPath" style="stroke-width: 2.5;"/></marker><marker id="my-svg_flowchart-v2-crossStart-margin" class="marker cross flowchart-v2" viewBox="0 0 15 15" refX="-3.5" refY="7.5" markerUnits="userSpaceOnUse" markerWidth="12" markerHeight="12" orient="auto"><path d="M 1,1 L 14,14 M 1,14 L 14,1" class="arrowMarkerPath" style="stroke-width: 2.5; stroke-dasharray: 1, 0;"/></marker><g class="root"><g class="clusters"><g class="cluster" id="my-svg-LANE_CODE" data-look="classic"><rect style="" x="353.5" y="8" width="3794.59375" height="459.984375"/><g class="cluster-label" transform="translate(2142.296875, 8)"><foreignObject width="217" height="24"><div xmlns="http://www.w3.org/1999/xhtml" style="display: table-cell; white-space: nowrap; line-height: 1.5;"><span class="nodeLabel"><p>deterministic engine — Python</p></span></div></foreignObject></g></g><g class="cluster" id="my-svg-LANE_LLM" data-look="classic"><rect style="" x="8" y="487.984375" width="3675.109375" height="191"/><g class="cluster-label" transform="translate(1729.9453125, 487.984375)"><foreignObject width="231.21875" height="24"><div xmlns="http://www.w3.org/1999/xhtml" style="display: table-cell; white-space: nowrap; line-height: 1.5;"><span class="nodeLabel"><p>LLM / agent — non-deterministic</p></span></div></foreignObject></g></g></g><g class="edgePaths"><path d="M304,588.984L308.083,588.901C312.167,588.818,320.333,588.651,328.583,588.568C336.833,588.484,345.167,588.484,374.16,543.154C403.154,497.823,452.809,407.162,477.636,361.831L502.463,316.5" id="my-svg-L_L1_C2_0" class="edge-thickness-normal edge-pattern-solid edge-thickness-normal edge-pattern-solid flowchart-link" style=";" data-edge="true" data-et="edge" data-id="L_L1_C2_0" data-points="W3sieCI6MzA0LCJ5Ijo1ODguOTg0Mzc1fSx7IngiOjMyOC41LCJ5Ijo1ODguNDg0Mzc1fSx7IngiOjM1My41LCJ5Ijo1ODguNDg0Mzc1fSx7IngiOjUwNC4zODQyMTUwMzM4MjUxNywieSI6MzEyLjk5MjE4NzV9XQ==" data-look="classic" marker-end="url(#my-svg_flowchart-v2-pointEnd)"/><path d="M712.422,237.992L716.589,237.992C720.755,237.992,729.089,237.992,736.755,237.992C744.422,237.992,751.422,237.992,754.922,237.992L758.422,237.992" id="my-svg-L_C2_C3_0" class="edge-thickness-normal edge-pattern-solid edge-thickness-normal edge-pattern-solid flowchart-link" style=";" data-edge="true" data-et="edge" data-id="L_C2_C3_0" data-points="W3sieCI6NzEyLjQyMTg3NSwieSI6MjM3Ljk5MjE4NzV9LHsieCI6NzM3LjQyMTg3NSwieSI6MjM3Ljk5MjE4NzV9LHsieCI6NzYyLjQyMTg3NSwieSI6MjM3Ljk5MjE4NzV9XQ==" data-look="classic" marker-end="url(#my-svg_flowchart-v2-pointEnd)"/><path d="M1022.422,237.992L1026.589,237.992C1030.755,237.992,1039.089,237.992,1046.755,237.992C1054.422,237.992,1061.422,237.992,1064.922,237.992L1068.422,237.992" id="my-svg-L_C3_C4_0" class="edge-thickness-normal edge-pattern-solid edge-thickness-normal edge-pattern-solid flowchart-link" style=";" data-edge="true" data-et="edge" data-id="L_C3_C4_0" data-points="W3sieCI6MTAyMi40MjE4NzUsInkiOjIzNy45OTIxODc1fSx7IngiOjEwNDcuNDIxODc1LCJ5IjoyMzcuOTkyMTg3NX0seyJ4IjoxMDcyLjQyMTg3NSwieSI6MjM3Ljk5MjE4NzV9XQ==" data-look="classic" marker-end="url(#my-svg_flowchart-v2-pointEnd)"/><path d="M1332.422,237.992L1336.589,237.992C1340.755,237.992,1349.089,237.992,1356.755,237.992C1364.422,237.992,1371.422,237.992,1374.922,237.992L1378.422,237.992" id="my-svg-L_C4_C5_0" class="edge-thickness-normal edge-pattern-solid edge-thickness-normal edge-pattern-solid flowchart-link" style=";" data-edge="true" data-et="edge" data-id="L_C4_C5_0" data-points="W3sieCI6MTMzMi40MjE4NzUsInkiOjIzNy45OTIxODc1fSx7IngiOjEzNTcuNDIxODc1LCJ5IjoyMzcuOTkyMTg3NX0seyJ4IjoxMzgyLjQyMTg3NSwieSI6MjM3Ljk5MjE4NzV9XQ==" data-look="classic" marker-end="url(#my-svg_flowchart-v2-pointEnd)"/><path d="M1642.422,237.992L1646.589,237.992C1650.755,237.992,1659.089,237.992,1666.755,237.992C1674.422,237.992,1681.422,237.992,1684.922,237.992L1688.422,237.992" id="my-svg-L_C5_C6_0" class="edge-thickness-normal edge-pattern-solid edge-thickness-normal edge-pattern-solid flowchart-link" style=";" data-edge="true" data-et="edge" data-id="L_C5_C6_0" data-points="W3sieCI6MTY0Mi40MjE4NzUsInkiOjIzNy45OTIxODc1fSx7IngiOjE2NjcuNDIxODc1LCJ5IjoyMzcuOTkyMTg3NX0seyJ4IjoxNjkyLjQyMTg3NSwieSI6MjM3Ljk5MjE4NzV9XQ==" data-look="classic" marker-end="url(#my-svg_flowchart-v2-pointEnd)"/><path d="M1977.969,237.992L1982.135,237.992C1986.302,237.992,1994.635,237.992,2020.971,285.969C2047.306,333.946,2091.644,429.9,2113.812,477.876L2135.981,525.853" id="my-svg-L_C6_L7_0" class="edge-thickness-normal edge-pattern-solid edge-thickness-normal edge-pattern-solid flowchart-link" style=";" data-edge="true" data-et="edge" data-id="L_C6_L7_0" data-points="W3sieCI6MTk3Ny45Njg3NSwieSI6MjM3Ljk5MjE4NzV9LHsieCI6MjAwMi45Njg3NSwieSI6MjM3Ljk5MjE4NzV9LHsieCI6MjEzNy42NTg4NjQ0NDU4NzE2LCJ5Ijo1MjkuNDg0Mzc1fV0=" data-look="classic" marker-end="url(#my-svg_flowchart-v2-pointEnd)"/><path d="M2286.969,572.984L2291.052,572.901C2295.135,572.818,2303.302,572.651,2310.969,572.638C2318.636,572.625,2325.803,572.765,2329.386,572.836L2332.97,572.906" id="my-svg-L_L7_L8_0" class="edge-thickness-normal edge-pattern-solid edge-thickness-normal edge-pattern-solid flowchart-link" style=";" data-edge="true" data-et="edge" data-id="L_L7_L8_0" data-points="W3sieCI6MjI4Ni45Njg3NSwieSI6NTcyLjk4NDM3NX0seyJ4IjoyMzExLjQ2ODc1LCJ5Ijo1NzIuNDg0Mzc1fSx7IngiOjIzMzYuOTY4NzUsInkiOjU3Mi45ODQzNzV9XQ==" data-look="classic" marker-end="url(#my-svg_flowchart-v2-pointEnd)"/><path d="M2595.469,572.984L2599.552,572.901C2603.635,572.818,2611.802,572.651,2619.469,572.638C2627.136,572.625,2634.303,572.765,2637.886,572.836L2641.47,572.906" id="my-svg-L_L8_L9_0" class="edge-thickness-normal edge-pattern-solid edge-thickness-normal edge-pattern-solid flowchart-link" style=";" data-edge="true" data-et="edge" data-id="L_L8_L9_0" data-points="W3sieCI6MjU5NS40Njg3NSwieSI6NTcyLjk4NDM3NX0seyJ4IjoyNjE5Ljk2ODc1LCJ5Ijo1NzIuNDg0Mzc1fSx7IngiOjI2NDUuNDY4NzUsInkiOjU3Mi45ODQzNzV9XQ==" data-look="classic" marker-end="url(#my-svg_flowchart-v2-pointEnd)"/><path d="M2848.078,559.734L2867.716,556.984C2887.354,554.234,2926.63,548.734,2979.408,504.133C3032.185,459.532,3098.464,375.83,3131.603,333.979L3164.742,292.128" id="my-svg-L_L9_C10_0" class="edge-thickness-normal edge-pattern-dotted edge-thickness-normal edge-pattern-solid flowchart-link" style=";" data-edge="true" data-et="edge" data-id="L_L9_C10_0" data-points="W3sieCI6Mjg0OC4wNzgwNjU4MDAzNzg3LCJ5Ijo1NTkuNzM0MjU2NjAwNzU3N30seyJ4IjoyOTY1LjkwNjI1LCJ5Ijo1NDMuMjM0Mzc1fSx7IngiOjMxNjcuMjI1NTA5NzI5MDgzLCJ5IjoyODguOTkyMTg3NX1d" data-look="classic" marker-end="url(#my-svg_flowchart-v2-pointEnd)"/><path d="M3337.609,237.992L3341.776,237.992C3345.943,237.992,3354.276,237.992,3380.727,286.635C3407.179,335.277,3451.748,432.563,3474.033,481.205L3496.318,529.848" id="my-svg-L_C10_L11_0" class="edge-thickness-normal edge-pattern-solid edge-thickness-normal edge-pattern-solid flowchart-link" style=";" data-edge="true" data-et="edge" data-id="L_C10_L11_0" data-points="W3sieCI6MzMzNy42MDkzNzUsInkiOjIzNy45OTIxODc1fSx7IngiOjMzNjIuNjA5Mzc1LCJ5IjoyMzcuOTkyMTg3NX0seyJ4IjozNDk3Ljk4Mzk4NzcwOTgwNSwieSI6NTMzLjQ4NDM3NX1d" data-look="classic" marker-end="url(#my-svg_flowchart-v2-pointEnd)"/><path d="M2850.972,580.446L2870.128,581.786C2889.284,583.126,2927.595,585.805,2987.034,587.145C3046.474,588.484,3127.042,588.484,3193.159,588.484C3259.276,588.484,3310.943,588.484,3340.36,588.555C3369.776,588.625,3376.943,588.765,3380.527,588.836L3384.11,588.906" id="my-svg-L_L9_L11_0" class="edge-thickness-normal edge-pattern-dotted edge-thickness-normal edge-pattern-solid flowchart-link" style=";" data-edge="true" data-et="edge" data-id="L_L9_L11_0" data-points="W3sieCI6Mjg1MC45NzIxMzIwNjk5NjgsInkiOjU4MC40NDYzNjA4NjAwNjM0fSx7IngiOjI5NjUuOTA2MjUsInkiOjU4OC40ODQzNzV9LHsieCI6MzIwNy42MDkzNzUsInkiOjU4OC40ODQzNzV9LHsieCI6MzM2Mi42MDkzNzUsInkiOjU4OC40ODQzNzV9LHsieCI6MzM4OC4xMDkzNzUsInkiOjU4OC45ODQzNzV9XQ==" data-look="classic" marker-end="url(#my-svg_flowchart-v2-pointEnd)"/><path d="M3658.609,588.984L3662.693,588.901C3666.776,588.818,3674.943,588.651,3683.193,530.152C3691.443,471.654,3699.776,354.823,3707.443,296.408C3715.109,237.992,3722.109,237.992,3725.609,237.992L3729.109,237.992" id="my-svg-L_L11_G12_0" class="edge-thickness-normal edge-pattern-solid edge-thickness-normal edge-pattern-solid flowchart-link" style=";" data-edge="true" data-et="edge" data-id="L_L11_G12_0" data-points="W3sieCI6MzY1OC42MDkzNzUsInkiOjU4OC45ODQzNzV9LHsieCI6MzY4My4xMDkzNzUsInkiOjU4OC40ODQzNzV9LHsieCI6MzcwOC4xMDkzNzUsInkiOjIzNy45OTIxODc1fSx7IngiOjM3MzMuMTA5Mzc1LCJ5IjoyMzcuOTkyMTg3NX1d" data-look="classic" marker-end="url(#my-svg_flowchart-v2-pointEnd)"/><path d="M4123.094,237.992L4127.26,237.992C4131.427,237.992,4139.76,237.992,4164.76,237.992C4189.76,237.992,4231.427,237.992,4272.51,238.073C4313.594,238.154,4354.094,238.315,4374.344,238.396L4394.594,238.476" id="my-svg-L_G12_DONE_0" class="edge-thickness-thick edge-pattern-solid edge-thickness-normal edge-pattern-solid flowchart-link" style=";" data-edge="true" data-et="edge" data-id="L_G12_DONE_0" data-points="W3sieCI6NDEyMy4wOTM3NSwieSI6MjM3Ljk5MjE4NzV9LHsieCI6NDE0OC4wOTM3NSwieSI6MjM3Ljk5MjE4NzV9LHsieCI6NDI3My4wOTM3NSwieSI6MjM3Ljk5MjE4NzV9LHsieCI6NDM5OC41OTM3NTAwMDAwNiwieSI6MjM4LjQ5MjE4NzV9XQ==" data-look="classic" marker-end="url(#my-svg_flowchart-v2-pointEnd)"/></g><g class="edgeLabels"><g class="edgeLabel"><g class="label" data-id="L_L1_C2_0" transform="translate(0, 0)"><foreignObject width="0" height="0"><div xmlns="http://www.w3.org/1999/xhtml" class="labelBkg" style="display: table-cell; white-space: nowrap; line-height: 1.5; max-width: 200px; text-align: center;"><span class="edgeLabel"></span></div></foreignObject></g></g><g class="edgeLabel"><g class="label" data-id="L_C2_C3_0" transform="translate(0, 0)"><foreignObject width="0" height="0"><div xmlns="http://www.w3.org/1999/xhtml" class="labelBkg" style="display: table-cell; white-space: nowrap; line-height: 1.5; max-width: 200px; text-align: center;"><span class="edgeLabel"></span></div></foreignObject></g></g><g class="edgeLabel"><g class="label" data-id="L_C3_C4_0" transform="translate(0, 0)"><foreignObject width="0" height="0"><div xmlns="http://www.w3.org/1999/xhtml" class="labelBkg" style="display: table-cell; white-space: nowrap; line-height: 1.5; max-width: 200px; text-align: center;"><span class="edgeLabel"></span></div></foreignObject></g></g><g class="edgeLabel"><g class="label" data-id="L_C4_C5_0" transform="translate(0, 0)"><foreignObject width="0" height="0"><div xmlns="http://www.w3.org/1999/xhtml" class="labelBkg" style="display: table-cell; white-space: nowrap; line-height: 1.5; max-width: 200px; text-align: center;"><span class="edgeLabel"></span></div></foreignObject></g></g><g class="edgeLabel"><g class="label" data-id="L_C5_C6_0" transform="translate(0, 0)"><foreignObject width="0" height="0"><div xmlns="http://www.w3.org/1999/xhtml" class="labelBkg" style="display: table-cell; white-space: nowrap; line-height: 1.5; max-width: 200px; text-align: center;"><span class="edgeLabel"></span></div></foreignObject></g></g><g class="edgeLabel"><g class="label" data-id="L_C6_L7_0" transform="translate(0, 0)"><foreignObject width="0" height="0"><div xmlns="http://www.w3.org/1999/xhtml" class="labelBkg" style="display: table-cell; white-space: nowrap; line-height: 1.5; max-width: 200px; text-align: center;"><span class="edgeLabel"></span></div></foreignObject></g></g><g class="edgeLabel"><g class="label" data-id="L_L7_L8_0" transform="translate(0, 0)"><foreignObject width="0" height="0"><div xmlns="http://www.w3.org/1999/xhtml" class="labelBkg" style="display: table-cell; white-space: nowrap; line-height: 1.5; max-width: 200px; text-align: center;"><span class="edgeLabel"></span></div></foreignObject></g></g><g class="edgeLabel"><g class="label" data-id="L_L8_L9_0" transform="translate(0, 0)"><foreignObject width="0" height="0"><div xmlns="http://www.w3.org/1999/xhtml" class="labelBkg" style="display: table-cell; white-space: nowrap; line-height: 1.5; max-width: 200px; text-align: center;"><span class="edgeLabel"></span></div></foreignObject></g></g><g class="edgeLabel" transform="translate(3029.63595, 462.75138)"><g class="label" data-id="L_L9_C10_0" transform="translate(-86.703125, -12)"><foreignObject width="173.40625" height="24"><div xmlns="http://www.w3.org/1999/xhtml" class="labelBkg" style="display: table-cell; white-space: nowrap; line-height: 1.5; max-width: 200px; text-align: center;"><span class="edgeLabel"><p>premium · parallel graph</p></span></div></foreignObject></g></g><g class="edgeLabel"><g class="label" data-id="L_C10_L11_0" transform="translate(0, 0)"><foreignObject width="0" height="0"><div xmlns="http://www.w3.org/1999/xhtml" class="labelBkg" style="display: table-cell; white-space: nowrap; line-height: 1.5; max-width: 200px; text-align: center;"><span class="edgeLabel"></span></div></foreignObject></g></g><g class="edgeLabel" transform="translate(3207.609375, 588.484375)"><g class="label" data-id="L_L9_L11_0" transform="translate(-99.1484375, -12)"><foreignObject width="198.296875" height="24"><div xmlns="http://www.w3.org/1999/xhtml" class="labelBkg" style="display: table-cell; white-space: nowrap; line-height: 1.5; max-width: 200px; text-align: center;"><span class="edgeLabel"><p>free / serial · pick free mode</p></span></div></foreignObject></g></g><g class="edgeLabel"><g class="label" data-id="L_L11_G12_0" transform="translate(0, 0)"><foreignObject width="0" height="0"><div xmlns="http://www.w3.org/1999/xhtml" class="labelBkg" style="display: table-cell; white-space: nowrap; line-height: 1.5; max-width: 200px; text-align: center;"><span class="edgeLabel"></span></div></foreignObject></g></g><g class="edgeLabel" transform="translate(4273.09375, 237.9921875)"><g class="label" data-id="L_G12_DONE_0" transform="translate(-100, -24)"><foreignObject width="200" height="48"><div xmlns="http://www.w3.org/1999/xhtml" class="labelBkg" style="display: table; white-space: break-spaces; line-height: 1.5; max-width: 200px; text-align: center; width: 200px;"><span class="edgeLabel"><p>pass → advance_phase(EXECUTE)</p></span></div></foreignObject></g></g></g><g class="nodes"><g class="node default llm" id="my-svg-flowchart-L1-0" data-look="classic" transform="translate(168.25, 588.484375)"><polygon points="27.75,0 242.75,0 270.5,-55.5 242.75,-111 27.75,-111 0,-55.5" class="label-container" transform="translate(-135.25,55.5)" style="fill:#E69F00 !important;stroke:#8a6100 !important"/><g class="label" style="color:#111111 !important" transform="translate(-100, -48)"><rect/><foreignObject width="200" height="96"><div style="color: rgb(17, 17, 17) !important; display: table; white-space: break-spaces; line-height: 1.5; max-width: 200px; text-align: center; width: 200px;" xmlns="http://www.w3.org/1999/xhtml"><span style="color:#111111 !important" class="nodeLabel"><p>1 · phases/HANDOFF.md via skills/handoff ·<br />enter HANDOFF, copy checklist</p></span></div></foreignObject></g></g><g class="node default llm" id="my-svg-flowchart-L7-1" data-look="classic" transform="translate(2157.21875, 572.484375)"><polygon points="21.75,0 236.75,0 258.5,-43.5 236.75,-87 21.75,-87 0,-43.5" class="label-container" transform="translate(-129.25,43.5)" style="fill:#E69F00 !important;stroke:#8a6100 !important"/><g class="label" style="color:#111111 !important" transform="translate(-100, -36)"><rect/><foreignObject width="200" height="72"><div style="color: rgb(17, 17, 17) !important; display: table; white-space: break-spaces; line-height: 1.5; max-width: 200px; text-align: center; width: 200px;" xmlns="http://www.w3.org/1999/xhtml"><span style="color:#111111 !important" class="nodeLabel"><p>7 · recommend ONE mode ·<br />M / D / C / A / B with reason</p></span></div></foreignObject></g></g><g class="node default llm" id="my-svg-flowchart-L8-2" data-look="classic" transform="translate(2465.71875, 572.484375)"><polygon points="21.75,0 236.75,0 258.5,-43.5 236.75,-87 21.75,-87 0,-43.5" class="label-container" transform="translate(-129.25,43.5)" style="fill:#E69F00 !important;stroke:#8a6100 !important"/><g class="label" style="color:#111111 !important" transform="translate(-100, -36)"><rect/><foreignObject width="200" height="72"><div style="color: rgb(17, 17, 17) !important; display: table; white-space: break-spaces; line-height: 1.5; max-width: 200px; text-align: center; width: 200px;" xmlns="http://www.w3.org/1999/xhtml"><span style="color:#111111 !important" class="nodeLabel"><p>8 · write Task Execution Workflow<br />block into CLAUDE.md</p></span></div></foreignObject></g></g><g class="node default llm" id="my-svg-flowchart-L9-3" data-look="classic" transform="translate(2749.5859375, 572.484375)"><polygon points="15.75,0 193.484375,0 209.234375,-31.5 193.484375,-63 15.75,-63 0,-31.5" class="label-container" transform="translate(-104.6171875,31.5)" style="fill:#E69F00 !important;stroke:#8a6100 !important"/><g class="label" style="color:#111111 !important" transform="translate(-81.3671875, -24)"><rect/><foreignObject width="162.734375" height="48"><div style="color: rgb(17, 17, 17) !important; display: table-cell; white-space: nowrap; line-height: 1.5; max-width: 200px; text-align: center;" xmlns="http://www.w3.org/1999/xhtml"><span style="color:#111111 !important" class="nodeLabel"><p>9 · AskUserQuestion ·<br />structured mode picker</p></span></div></foreignObject></g></g><g class="node default llm" id="my-svg-flowchart-L11-4" data-look="classic" transform="translate(3522.859375, 588.484375)"><polygon points="27.75,0 242.75,0 270.5,-55.5 242.75,-111 27.75,-111 0,-55.5" class="label-container" transform="translate(-135.25,55.5)" style="fill:#E69F00 !important;stroke:#8a6100 !important"/><g class="label" style="color:#111111 !important" transform="translate(-100, -48)"><rect/><foreignObject width="200" height="96"><div style="color: rgb(17, 17, 17) !important; display: table; white-space: break-spaces; line-height: 1.5; max-width: 200px; text-align: center; width: 200px;" xmlns="http://www.w3.org/1999/xhtml"><span style="color:#111111 !important" class="nodeLabel"><p>11 · dispatch chosen mode ·<br />writing-plans / ralph-loop / atlas-loop</p></span></div></foreignObject></g></g><g class="node default code" id="my-svg-flowchart-C2-5" data-look="classic" transform="translate(545.4609375, 237.9921875)"><rect class="basic label-container" style="fill:#56B4E9 !important;stroke:#1f6f9c !important" x="-166.9609375" y="-75" width="333.921875" height="150"/><g class="label" style="color:#111111 !important" transform="translate(-136.9609375, -60)"><rect/><foreignObject width="273.921875" height="120"><div style="color: rgb(17, 17, 17) !important; display: table; white-space: break-spaces; line-height: 1.5; max-width: 200px; text-align: center; width: 200px;" xmlns="http://www.w3.org/1999/xhtml"><span style="color:#111111 !important" class="nodeLabel"><p>2 · mode_recommend.detect_capabilities ·<br />tier premium/free gating of Mode D / Atlas Fleet</p></span></div></foreignObject></g></g><g class="node default code" id="my-svg-flowchart-C3-6" data-look="classic" transform="translate(892.421875, 237.9921875)"><rect class="basic label-container" style="fill:#56B4E9 !important;stroke:#1f6f9c !important" x="-130" y="-51" width="260" height="102"/><g class="label" style="color:#111111 !important" transform="translate(-100, -36)"><rect/><foreignObject width="200" height="72"><div style="color: rgb(17, 17, 17) !important; display: table; white-space: break-spaces; line-height: 1.5; max-width: 200px; text-align: center; width: 200px;" xmlns="http://www.w3.org/1999/xhtml"><span style="color:#111111 !important" class="nodeLabel"><p>3 · fleet.compute_waves ·<br />topological waves plus deadlock detect</p></span></div></foreignObject></g></g><g class="node default code" id="my-svg-flowchart-C4-7" data-look="classic" transform="translate(1202.421875, 237.9921875)"><rect class="basic label-container" style="fill:#56B4E9 !important;stroke:#1f6f9c !important" x="-130" y="-63" width="260" height="126"/><g class="label" style="color:#111111 !important" transform="translate(-100, -48)"><rect/><foreignObject width="200" height="96"><div style="color: rgb(17, 17, 17) !important; display: table; white-space: break-spaces; line-height: 1.5; max-width: 200px; text-align: center; width: 200px;" xmlns="http://www.w3.org/1999/xhtml"><span style="color:#111111 !important" class="nodeLabel"><p>4 · fleet.route_task plus resolve_backend plus task_tier ·<br />per-task backend routing</p></span></div></foreignObject></g></g><g class="node default code" id="my-svg-flowchart-C5-8" data-look="classic" transform="translate(1512.421875, 237.9921875)"><rect class="basic label-container" style="fill:#56B4E9 !important;stroke:#1f6f9c !important" x="-130" y="-51" width="260" height="102"/><g class="label" style="color:#111111 !important" transform="translate(-100, -36)"><rect/><foreignObject width="200" height="72"><div style="color: rgb(17, 17, 17) !important; display: table; white-space: break-spaces; line-height: 1.5; max-width: 200px; text-align: center; width: 200px;" xmlns="http://www.w3.org/1999/xhtml"><span style="color:#111111 !important" class="nodeLabel"><p>5 · render.handoff_panel ·<br />spec, task count, capabilities summary</p></span></div></foreignObject></g></g><g class="node default code" id="my-svg-flowchart-C6-9" data-look="classic" transform="translate(1835.1953125, 237.9921875)"><rect class="basic label-container" style="fill:#56B4E9 !important;stroke:#1f6f9c !important" x="-142.7734375" y="-63" width="285.546875" height="126"/><g class="label" style="color:#111111 !important" transform="translate(-112.7734375, -48)"><rect/><foreignObject width="225.546875" height="96"><div style="color: rgb(17, 17, 17) !important; display: table; white-space: break-spaces; line-height: 1.5; max-width: 200px; text-align: center; width: 200px;" xmlns="http://www.w3.org/1999/xhtml"><span style="color:#111111 !important" class="nodeLabel"><p>6 · economy.summarize_telemetry ·<br />cost/usage ledger</p></span></div></foreignObject></g></g><g class="node default code" id="my-svg-flowchart-C10-10" data-look="classic" transform="translate(3207.609375, 237.9921875)"><rect class="basic label-container" style="fill:#56B4E9 !important;stroke:#1f6f9c !important" x="-130" y="-51" width="260" height="102"/><g class="label" style="color:#111111 !important" transform="translate(-100, -36)"><rect/><foreignObject width="200" height="72"><div style="color: rgb(17, 17, 17) !important; display: table; white-space: break-spaces; line-height: 1.5; max-width: 200px; text-align: center; width: 200px;" xmlns="http://www.w3.org/1999/xhtml"><span style="color:#111111 !important" class="nodeLabel"><p>10 · fleet.run_fleet_waves ·<br />wave scheduling JSON (premium dispatch)</p></span></div></foreignObject></g></g><g class="node default gate" id="my-svg-flowchart-G12-11" data-look="classic" transform="translate(3928.1015625, 237.9921875)"><polygon points="194.9921875,0 389.984375,-194.9921875 194.9921875,-389.984375 0,-194.9921875" class="label-container" transform="translate(-194.4921875, 194.9921875)" style="fill:#F0E442 !important;stroke:#9a8f00 !important"/><g class="label" style="color:#111111 !important" transform="translate(-119.9921875, -60)"><rect/><foreignObject width="239.984375" height="120"><div style="color: rgb(17, 17, 17) !important; display: table; white-space: break-spaces; line-height: 1.5; max-width: 200px; text-align: center; width: 200px;" xmlns="http://www.w3.org/1999/xhtml"><span style="color:#111111 !important" class="nodeLabel"><p>12 · pipeline.check_gate('HANDOFF') ·<br />user_mode_choice plus plan_file_exists</p></span></div></foreignObject></g></g><g class="node default code" id="my-svg-flowchart-DONE-31" data-look="classic" transform="translate(4457.6071701049805, 237.9921875)"><g class="basic label-container outer-path"><path d="M-40.0234375 -19.5 C-19.17528766754502 -19.5, 1.672862164909958 -19.5, 40.0234375 -19.5 C40.0234375 -19.5, 40.0234375 -19.5, 40.0234375 -19.5 C40.419748831659504 -19.48729106696689, 40.81606016331901 -19.474582133933783, 41.2728067896239 -19.45993515863156 C41.60812966867177 -19.427586963774576, 41.943452547719644 -19.39523876891759, 42.517042152847864 -19.3399052695533 C42.78454272736759 -19.296657851162887, 43.05204330188731 -19.25341043277248, 43.75103075967676 -19.140403561325776 C44.17904973775055 -19.04271102266529, 44.60706871582435 -18.945018484004805, 44.96970188623539 -18.862249829261074 C45.43980268926032 -18.722726378532748, 45.909903492285245 -18.583202927804418, 46.168047751460605 -18.50658706670804 C46.50423097952785 -18.3828685311356, 46.84041420759509 -18.25914999556316, 47.3411440951478 -18.074876768247425 C47.72905328663339 -17.903160876094077, 48.11696247811897 -17.731444983940733, 48.48417041279238 -17.568892924097174 C48.85646282572173 -17.374668210736605, 49.228755238651075 -17.18044349737604, 49.59242976407678 -16.990714730406097 C49.869151009414836 -16.822964685287626, 50.14587225475289 -16.655214640169156, 50.6613680736057 -16.342718045390892 C50.94620023318796 -16.14403146105177, 51.23103239277022 -15.945344876712646, 51.68659284457871 -15.627565626425154 C51.95058583804889 -15.41703823928128, 52.21457883151906 -15.206510852137407, 52.663891208501866 -14.848196188198123 C52.92092994882355 -14.614760405110365, 53.17796868914523 -14.381324622022607, 53.58924723676799 -14.007812326905688 C53.81202331874334 -13.77777773200965, 54.0347994007187 -13.54774313711361, 54.45885844296865 -13.10986736009568 C54.68848434152956 -12.840135713562262, 54.91811024009047 -12.570404067028845, 55.26915140812658 -12.158051136245305 C55.4606518005872 -11.901458056392729, 55.65215219304782 -11.644864976540154, 56.016796464640635 -11.156274872382312 C56.22905054549668 -10.830195605986212, 56.44130462635273 -10.504116339590114, 56.69872137860425 -10.108655082055241 C56.82618131929761 -9.882337050635623, 56.953641259990974 -9.656019019216007, 57.312123974273504 -9.019496659696287 C57.4731864231181 -8.685047038486136, 57.634248871962704 -8.350597417275985, 57.85448364880834 -7.893275190886684 C58.04111425550334 -7.432293984092737, 58.22774486219833 -6.971312777298789, 58.323571729970325 -6.734618561215508 C58.40428857959826 -6.4915122706196735, 58.48500542922619 -6.248405980023838, 58.71746063421488 -5.548287939305138 C58.84236240944992 -5.071983337562119, 58.96726418468496 -4.5956787358191, 59.03453178754556 -4.339158212148133 C59.08736455327256 -4.067873126348984, 59.140197318999554 -3.7965880405498353, 59.273482276581774 -3.1121979531509023 C59.31552495342754 -2.786123253800716, 59.357567630273316 -2.460048554450529, 59.43333020250937 -1.872449005199798 C59.45351798708017 -1.55800796522321, 59.47370577165096 -1.243566925246622, 59.51341871591342 -0.6250057626472757 C59.51341871591342 -0.22765441130268338, 59.51341871591342 0.16969694004190894, 59.51341871591342 0.625005762647271 C59.483255929726354 1.0948155044735681, 59.45309314353929 1.5646252462998653, 59.43333020250937 1.8724490051997846 C59.40013981639378 2.129867085729185, 59.3669494302782 2.387285166258585, 59.273482276581774 3.1121979531508885 C59.22225428240399 3.3752428762134405, 59.171026288226194 3.6382877992759926, 59.03453178754556 4.339158212148129 C58.94978331257229 4.662340877442589, 58.86503483759903 4.98552354273705, 58.71746063421489 5.548287939305125 C58.570813369912386 5.98996613431572, 58.424166105609885 6.431644329326315, 58.323571729970325 6.734618561215495 C58.13930532214713 7.189760151087424, 57.955038914323936 7.644901740959354, 57.85448364880834 7.893275190886679 C57.69447760543034 8.225531163541971, 57.534471562052346 8.557787136197264, 57.312123974273504 9.019496659696284 C57.188094768627145 9.239723073640354, 57.06406556298078 9.459949487584423, 56.69872137860425 10.108655082055236 C56.43103145372599 10.519898691477893, 56.16334152884773 10.93114230090055, 56.01679646464064 11.156274872382301 C55.776627202614556 11.47807980362737, 55.53645794058848 11.79988473487244, 55.26915140812658 12.158051136245302 C55.01970312668258 12.451067281638743, 54.770254845238576 12.744083427032182, 54.45885844296866 13.10986736009567 C54.2703618553686 13.304505562650391, 54.08186526776853 13.499143765205112, 53.58924723676799 14.007812326905684 C53.24746685831338 14.318208223604888, 52.90568647985877 14.628604120304093, 52.66389120850189 14.848196188198111 C52.36079858445582 15.089904490241388, 52.057705960409756 15.331612792284663, 51.68659284457871 15.627565626425152 C51.28421432734417 15.908247461362699, 50.88183581010963 16.188929296300245, 50.66136807360571 16.34271804539089 C50.28637345081672 16.570041989438586, 49.91137882802773 16.797365933486283, 49.59242976407678 16.990714730406093 C49.16178458473935 17.21538204462503, 48.73113940540192 17.440049358843968, 48.48417041279239 17.56889292409717 C48.105191040170325 17.736655850333296, 47.72621166754827 17.904418776569425, 47.341144095147804 18.07487676824742 C47.10578010015654 18.161492894085125, 46.870416105165276 18.24810901992283, 46.16804775146062 18.506587066708033 C45.69373178092815 18.647361557026738, 45.21941581039567 18.788136047345443, 44.96970188623541 18.86224982926107 C44.55139551373261 18.95772552908065, 44.133089141229796 19.05320122890023, 43.751030759676766 19.140403561325773 C43.27623884663032 19.217164235760844, 42.801446933583875 19.29392491019592, 42.51704215284788 19.3399052695533 C42.063595315769646 19.38364874057663, 41.610148478691414 19.427392211599955, 41.2728067896239 19.45993515863156 C40.80338092973184 19.47498873227629, 40.333955069839774 19.490042305921023, 40.02343750000001 19.5 C40.02343750000001 19.5, 40.0234375 19.5, 40.0234375 19.5 C19.417175683440878 19.5, -1.189086133118245 19.5, -40.02343749999999 19.5 C-40.31943281170953 19.490508006473398, -40.61542812341908 19.481016012946796, -41.27280678962389 19.45993515863156 C-41.76877624781095 19.412089581490797, -42.264745705998 19.364244004350034, -42.51704215284787 19.3399052695533 C-43.004419500478164 19.261109879656214, -43.49179684810846 19.182314489759126, -43.75103075967676 19.140403561325773 C-43.99496096156647 19.084728084537776, -44.23889116345618 19.029052607749776, -44.969701886235384 18.862249829261074 C-45.233786157305396 18.783871003814124, -45.4978704283754 18.70549217836717, -46.16804775146059 18.506587066708043 C-46.55007369478095 18.365997988157044, -46.932099638101306 18.225408909606042, -47.3411440951478 18.074876768247425 C-47.7453558298184 17.895944223823832, -48.149567564489004 17.717011679400244, -48.48417041279238 17.568892924097174 C-48.897226607567376 17.353401771858177, -49.31028280234238 17.13791061961918, -49.59242976407678 16.990714730406097 C-49.840760401193194 16.84017523883332, -50.0890910383096 16.689635747260542, -50.661368073605686 16.3427180453909 C-51.01825308889461 16.09377050802866, -51.37513810418354 15.844822970666417, -51.68659284457871 15.627565626425156 C-51.98736203744836 15.387710198915972, -52.28813123031801 15.147854771406788, -52.663891208501866 14.848196188198125 C-52.96426230050556 14.575407109823962, -53.26463339250925 14.3026180314498, -53.589247236767974 14.007812326905697 C-53.93469196867261 13.65111227967422, -54.280136700577245 13.294412232442742, -54.458858442968655 13.109867360095677 C-54.732962147979265 12.787889551247558, -55.00706585298987 12.465911742399438, -55.269151408126575 12.158051136245307 C-55.45875823445518 11.903995262502209, -55.64836506078378 11.649939388759108, -56.016796464640635 11.156274872382316 C-56.231284629994896 10.826763452261277, -56.44577279534916 10.497252032140238, -56.69872137860425 10.108655082055249 C-56.908116585180395 9.736852689215393, -57.11751179175655 9.365050296375538, -57.312123974273504 9.019496659696289 C-57.4668558996019 8.69819250601903, -57.62158782493031 8.376888352341771, -57.85448364880834 7.893275190886686 C-58.03870421817673 7.438246822884356, -58.22292478754512 6.983218454882024, -58.323571729970325 6.73461856121551 C-58.41560875302839 6.4574177118728215, -58.50764577608645 6.180216862530134, -58.71746063421488 5.5482879393051325 C-58.83035541839451 5.117771198319241, -58.943250202574134 4.68725445733335, -59.03453178754556 4.339158212148136 C-59.08658310412786 4.0718857025476805, -59.13863442071016 3.8046131929472256, -59.273482276581774 3.112197953150904 C-59.31752940155729 2.770577149929493, -59.3615765265328 2.4289563467080817, -59.43333020250937 1.872449005199809 C-59.46441135688922 1.3883349374773652, -59.49549251126907 0.9042208697549213, -59.51341871591342 0.6250057626472781 C-59.51341871591342 0.31373498643547254, -59.51341871591342 0.0024642102236669405, -59.51341871591342 -0.6250057626472687 C-59.49317026617526 -0.9403917115734348, -59.472921816437115 -1.255777660499601, -59.43333020250937 -1.8724490051997822 C-59.382998077233864 -2.2628150296342318, -59.33266595195836 -2.653181054068681, -59.273482276581774 -3.112197953150895 C-59.184577512821406 -3.5687051250319093, -59.09567274906104 -4.025212296912923, -59.03453178754556 -4.339158212148126 C-58.96315838746951 -4.611335920065359, -58.89178498739347 -4.883513627982594, -58.71746063421489 -5.548287939305123 C-58.623457015829395 -5.831411860439609, -58.5294533974439 -6.114535781574094, -58.32357172997033 -6.734618561215485 C-58.15075361131119 -7.161482655514595, -57.977935492652044 -7.588346749813705, -57.85448364880834 -7.893275190886676 C-57.715615504087886 -8.181637864701006, -57.57674735936743 -8.470000538515336, -57.312123974273504 -9.019496659696282 C-57.101441712471996 -9.393584349417235, -56.89075945067049 -9.767672039138187, -56.69872137860425 -10.108655082055243 C-56.43404957903437 -10.515262040524105, -56.16937777946449 -10.921868998992968, -56.01679646464064 -11.156274872382308 C-55.85165378325763 -11.377551020627765, -55.68651110187463 -11.598827168873223, -55.26915140812659 -12.158051136245302 C-55.02509764793708 -12.444730570016258, -54.781043887747565 -12.731410003787214, -54.45885844296866 -13.10986736009567 C-54.21081332904202 -13.36599430510752, -53.96276821511537 -13.62212125011937, -53.589247236767996 -14.007812326905677 C-53.268709380201685 -14.298916327272261, -52.94817152363537 -14.590020327638845, -52.66389120850189 -14.848196188198107 C-52.36106923436558 -15.089688654140646, -52.05824726022928 -15.331181120083187, -51.68659284457872 -15.627565626425149 C-51.42984366221336 -15.806662741550255, -51.173094479848 -15.985759856675362, -50.661368073605715 -16.342718045390885 C-50.434151773795655 -16.480457901606933, -50.206935473985595 -16.618197757822983, -49.59242976407679 -16.99071473040609 C-49.161119376660075 -17.215729083253905, -48.72980898924335 -17.44074343610172, -48.48417041279239 -17.56889292409717 C-48.24238130407005 -17.675925790109474, -48.000592195347714 -17.78295865612178, -47.341144095147804 -18.07487676824742 C-47.0776569590103 -18.17184246999441, -46.814169822872785 -18.2688081717414, -46.16804775146062 -18.506587066708033 C-45.86954907501218 -18.595179907026402, -45.57105039856374 -18.683772747344772, -44.96970188623541 -18.862249829261067 C-44.6906581962148 -18.92593973057802, -44.411614506194184 -18.989629631894974, -43.751030759676766 -19.140403561325773 C-43.274685466655406 -19.217415374188548, -42.798340173634045 -19.294427187051323, -42.51704215284788 -19.3399052695533 C-42.03499742534915 -19.386407544671496, -41.55295269785041 -19.432909819789696, -41.2728067896239 -19.45993515863156 C-40.994685605988536 -19.468853963660703, -40.716564422353166 -19.477772768689846, -40.02343750000001 -19.5 C-40.02343750000001 -19.5, -40.0234375 -19.5, -40.0234375 -19.5" stroke="none" stroke-width="0" fill="#56B4E9" style="fill:#56B4E9 !important;stroke:#1f6f9c !important"/><path d="M-40.0234375 -19.5 C-12.122423585364789 -19.5, 15.778590329270422 -19.5, 40.0234375 -19.5 M-40.0234375 -19.5 C-9.948468152353225 -19.5, 20.12650119529355 -19.5, 40.0234375 -19.5 M40.0234375 -19.5 C40.0234375 -19.5, 40.0234375 -19.5, 40.0234375 -19.5 M40.0234375 -19.5 C40.0234375 -19.5, 40.0234375 -19.5, 40.0234375 -19.5 M40.0234375 -19.5 C40.28994767643185 -19.49145353737242, 40.556457852863694 -19.48290707474484, 41.2728067896239 -19.45993515863156 M40.0234375 -19.5 C40.3689593527324 -19.48891978670036, 40.71448120546481 -19.47783957340072, 41.2728067896239 -19.45993515863156 M41.2728067896239 -19.45993515863156 C41.62918254745697 -19.42555601787796, 41.985558305290034 -19.39117687712436, 42.517042152847864 -19.3399052695533 M41.2728067896239 -19.45993515863156 C41.76165675593425 -19.412776390309702, 42.250506722244594 -19.36561762198784, 42.517042152847864 -19.3399052695533 M42.517042152847864 -19.3399052695533 C42.86981949751176 -19.282870964297206, 43.22259684217567 -19.225836659041118, 43.75103075967676 -19.140403561325776 M42.517042152847864 -19.3399052695533 C42.801607493306605 -19.293898952145103, 43.086172833765346 -19.24789263473691, 43.75103075967676 -19.140403561325776 M43.75103075967676 -19.140403561325776 C44.14903940152739 -19.049560686072482, 44.54704804337801 -18.95871781081919, 44.96970188623539 -18.862249829261074 M43.75103075967676 -19.140403561325776 C44.00780884319378 -19.081795639396606, 44.2645869267108 -19.023187717467437, 44.96970188623539 -18.862249829261074 M44.96970188623539 -18.862249829261074 C45.253633460579714 -18.777980428382925, 45.53756503492404 -18.69371102750478, 46.168047751460605 -18.50658706670804 M44.96970188623539 -18.862249829261074 C45.36947554692242 -18.743599105223932, 45.769249207609455 -18.624948381186787, 46.168047751460605 -18.50658706670804 M46.168047751460605 -18.50658706670804 C46.606895230849645 -18.345087137631243, 47.045742710238684 -18.183587208554446, 47.3411440951478 -18.074876768247425 M46.168047751460605 -18.50658706670804 C46.432400349508484 -18.409302866977793, 46.696752947556355 -18.312018667247546, 47.3411440951478 -18.074876768247425 M47.3411440951478 -18.074876768247425 C47.62635035138034 -17.948624418956275, 47.91155660761288 -17.82237206966512, 48.48417041279238 -17.568892924097174 M47.3411440951478 -18.074876768247425 C47.70217907829389 -17.915057290930907, 48.063214061439986 -17.75523781361439, 48.48417041279238 -17.568892924097174 M48.48417041279238 -17.568892924097174 C48.829748594347755 -17.388605008133126, 49.17532677590313 -17.208317092169075, 49.59242976407678 -16.990714730406097 M48.48417041279238 -17.568892924097174 C48.80588962155611 -17.40105221895612, 49.12760883031985 -17.23321151381507, 49.59242976407678 -16.990714730406097 M49.59242976407678 -16.990714730406097 C50.01003043381062 -16.73756275031951, 50.427631103544456 -16.484410770232923, 50.6613680736057 -16.342718045390892 M49.59242976407678 -16.990714730406097 C49.95199729893362 -16.772742777722502, 50.311564833790456 -16.554770825038908, 50.6613680736057 -16.342718045390892 M50.6613680736057 -16.342718045390892 C50.90269364496244 -16.17437977362804, 51.14401921631918 -16.00604150186519, 51.68659284457871 -15.627565626425154 M50.6613680736057 -16.342718045390892 C50.9701156764634 -16.127349083105678, 51.2788632793211 -15.91198012082046, 51.68659284457871 -15.627565626425154 M51.68659284457871 -15.627565626425154 C51.97418954645332 -15.398214909949811, 52.26178624832792 -15.168864193474466, 52.663891208501866 -14.848196188198123 M51.68659284457871 -15.627565626425154 C52.01083780383845 -15.368988899936252, 52.33508276309819 -15.110412173447347, 52.663891208501866 -14.848196188198123 M52.663891208501866 -14.848196188198123 C52.85709928513453 -14.672729725005913, 53.0503073617672 -14.497263261813705, 53.58924723676799 -14.007812326905688 M52.663891208501866 -14.848196188198123 C52.92252771855585 -14.61330935291416, 53.18116422860984 -14.378422517630197, 53.58924723676799 -14.007812326905688 M53.58924723676799 -14.007812326905688 C53.784727398678015 -13.805963010513818, 53.98020756058804 -13.60411369412195, 54.45885844296865 -13.10986736009568 M53.58924723676799 -14.007812326905688 C53.84742897699398 -13.741218483007259, 54.10561071721998 -13.474624639108832, 54.45885844296865 -13.10986736009568 M54.45885844296865 -13.10986736009568 C54.63542476062309 -12.902462516470688, 54.81199107827752 -12.695057672845694, 55.26915140812658 -12.158051136245305 M54.45885844296865 -13.10986736009568 C54.74211980791588 -12.777132442800395, 55.02538117286311 -12.444397525505108, 55.26915140812658 -12.158051136245305 M55.26915140812658 -12.158051136245305 C55.53018823383876 -11.80828557073503, 55.79122505955093 -11.458520005224754, 56.016796464640635 -11.156274872382312 M55.26915140812658 -12.158051136245305 C55.43096633482516 -11.941233876112296, 55.59278126152374 -11.724416615979285, 56.016796464640635 -11.156274872382312 M56.016796464640635 -11.156274872382312 C56.24344849481522 -10.808076489442206, 56.4701005249898 -10.4598781065021, 56.69872137860425 -10.108655082055241 M56.016796464640635 -11.156274872382312 C56.284980538987725 -10.744272116677822, 56.55316461333481 -10.332269360973331, 56.69872137860425 -10.108655082055241 M56.69872137860425 -10.108655082055241 C56.85300738808928 -9.834704649061987, 57.007293397574315 -9.56075421606873, 57.312123974273504 -9.019496659696287 M56.69872137860425 -10.108655082055241 C56.87469623018271 -9.796193913691697, 57.050671081761166 -9.483732745328155, 57.312123974273504 -9.019496659696287 M57.312123974273504 -9.019496659696287 C57.42483726031237 -8.785445109558594, 57.53755054635124 -8.5513935594209, 57.85448364880834 -7.893275190886684 M57.312123974273504 -9.019496659696287 C57.48545256342293 -8.659576135689806, 57.65878115257236 -8.299655611683326, 57.85448364880834 -7.893275190886684 M57.85448364880834 -7.893275190886684 C57.985996500801654 -7.568435903835179, 58.11750935279497 -7.243596616783674, 58.323571729970325 -6.734618561215508 M57.85448364880834 -7.893275190886684 C57.99338243694068 -7.550192498774426, 58.13228122507302 -7.207109806662168, 58.323571729970325 -6.734618561215508 M58.323571729970325 -6.734618561215508 C58.45059582403824 -6.352042228423888, 58.57761991810616 -5.9694658956322675, 58.71746063421488 -5.548287939305138 M58.323571729970325 -6.734618561215508 C58.42807731878012 -6.4198643784247755, 58.53258290758991 -6.105110195634043, 58.71746063421488 -5.548287939305138 M58.71746063421488 -5.548287939305138 C58.801612886060774 -5.2273789312001, 58.88576513790666 -4.906469923095063, 59.03453178754556 -4.339158212148133 M58.71746063421488 -5.548287939305138 C58.8034348093827 -5.220431147947007, 58.88940898455053 -4.892574356588876, 59.03453178754556 -4.339158212148133 M59.03453178754556 -4.339158212148133 C59.09199359129093 -4.044103994472173, 59.1494553950363 -3.7490497767962125, 59.273482276581774 -3.1121979531509023 M59.03453178754556 -4.339158212148133 C59.12532660887331 -3.87294599412241, 59.21612143020106 -3.4067337760966865, 59.273482276581774 -3.1121979531509023 M59.273482276581774 -3.1121979531509023 C59.33135511733776 -2.663347628532528, 59.38922795809374 -2.2144973039141536, 59.43333020250937 -1.872449005199798 M59.273482276581774 -3.1121979531509023 C59.32982754486746 -2.675195178958855, 59.386172813153145 -2.2381924047668074, 59.43333020250937 -1.872449005199798 M59.43333020250937 -1.872449005199798 C59.4537632383058 -1.5541879794208133, 59.47419627410222 -1.2359269536418287, 59.51341871591342 -0.6250057626472757 M59.43333020250937 -1.872449005199798 C59.4647741915639 -1.3826834945443616, 59.49621818061843 -0.8929179838889252, 59.51341871591342 -0.6250057626472757 M59.51341871591342 -0.6250057626472757 C59.51341871591342 -0.24294418214523134, 59.51341871591342 0.13911739835681303, 59.51341871591342 0.625005762647271 M59.51341871591342 -0.6250057626472757 C59.51341871591342 -0.2339723467423664, 59.51341871591342 0.15706106916254292, 59.51341871591342 0.625005762647271 M59.51341871591342 0.625005762647271 C59.49456165551575 0.918719699486073, 59.47570459511809 1.2124336363248749, 59.43333020250937 1.8724490051997846 M59.51341871591342 0.625005762647271 C59.486808537549244 1.0394807700185897, 59.46019835918508 1.4539557773899083, 59.43333020250937 1.8724490051997846 M59.43333020250937 1.8724490051997846 C59.3766841105975 2.311784908032144, 59.32003801868563 2.7511208108645033, 59.273482276581774 3.1121979531508885 M59.43333020250937 1.8724490051997846 C59.385349661660754 2.2445766051921243, 59.33736912081215 2.6167042051844636, 59.273482276581774 3.1121979531508885 M59.273482276581774 3.1121979531508885 C59.19327508033028 3.524044954105399, 59.11306788407878 3.93589195505991, 59.03453178754556 4.339158212148129 M59.273482276581774 3.1121979531508885 C59.217271856148415 3.400826581999624, 59.161061435715055 3.68945521084836, 59.03453178754556 4.339158212148129 M59.03453178754556 4.339158212148129 C58.946524416026946 4.6747684623847165, 58.858517044508325 5.010378712621305, 58.71746063421489 5.548287939305125 M59.03453178754556 4.339158212148129 C58.91600158181991 4.791165257896144, 58.797471376094265 5.243172303644158, 58.71746063421489 5.548287939305125 M58.71746063421489 5.548287939305125 C58.56402625188053 6.010407852447287, 58.41059186954616 6.472527765589448, 58.323571729970325 6.734618561215495 M58.71746063421489 5.548287939305125 C58.58546133667941 5.9458487922500165, 58.45346203914393 6.343409645194908, 58.323571729970325 6.734618561215495 M58.323571729970325 6.734618561215495 C58.17838062784061 7.093243390554887, 58.033189525710895 7.45186821989428, 57.85448364880834 7.893275190886679 M58.323571729970325 6.734618561215495 C58.145013721700835 7.175660293825383, 57.96645571343134 7.616702026435271, 57.85448364880834 7.893275190886679 M57.85448364880834 7.893275190886679 C57.68708478215511 8.240882519254079, 57.519685915501874 8.58848984762148, 57.312123974273504 9.019496659696284 M57.85448364880834 7.893275190886679 C57.72529506482959 8.161538049711448, 57.59610648085083 8.429800908536217, 57.312123974273504 9.019496659696284 M57.312123974273504 9.019496659696284 C57.17089162408221 9.270268998787163, 57.029659273890914 9.521041337878042, 56.69872137860425 10.108655082055236 M57.312123974273504 9.019496659696284 C57.12014467836257 9.360375339597855, 56.92816538245164 9.701254019499427, 56.69872137860425 10.108655082055236 M56.69872137860425 10.108655082055236 C56.46862482420927 10.462145179182126, 56.2385282698143 10.815635276309017, 56.01679646464064 11.156274872382301 M56.69872137860425 10.108655082055236 C56.494787368418365 10.42195248565016, 56.29085335823249 10.735249889245084, 56.01679646464064 11.156274872382301 M56.01679646464064 11.156274872382301 C55.77096119723683 11.485671734649824, 55.52512592983301 11.815068596917346, 55.26915140812658 12.158051136245302 M56.01679646464064 11.156274872382301 C55.84308808746835 11.389028272634459, 55.669379710296056 11.621781672886614, 55.26915140812658 12.158051136245302 M55.26915140812658 12.158051136245302 C54.96646055590941 12.513609034857009, 54.66376970369224 12.869166933468714, 54.45885844296866 13.10986736009567 M55.26915140812658 12.158051136245302 C55.013850354187305 12.45794228124388, 54.75854930024803 12.75783342624246, 54.45885844296866 13.10986736009567 M54.45885844296866 13.10986736009567 C54.20518010319338 13.371811073292683, 53.951501763418094 13.633754786489698, 53.58924723676799 14.007812326905684 M54.45885844296866 13.10986736009567 C54.135459827939734 13.443802981633121, 53.812061212910805 13.777738603170574, 53.58924723676799 14.007812326905684 M53.58924723676799 14.007812326905684 C53.358019323643326 14.217807399650175, 53.12679141051866 14.427802472394667, 52.66389120850189 14.848196188198111 M53.58924723676799 14.007812326905684 C53.227410224419465 14.336423127837886, 52.86557321207095 14.66503392877009, 52.66389120850189 14.848196188198111 M52.66389120850189 14.848196188198111 C52.27670021677187 15.156970700517787, 51.88950922504185 15.465745212837463, 51.68659284457871 15.627565626425152 M52.66389120850189 14.848196188198111 C52.287481754267816 15.14837271127353, 51.91107230003375 15.448549234348949, 51.68659284457871 15.627565626425152 M51.68659284457871 15.627565626425152 C51.436080783178724 15.802311995965427, 51.18556872177874 15.977058365505703, 50.66136807360571 16.34271804539089 M51.68659284457871 15.627565626425152 C51.43877445201479 15.800433009192435, 51.19095605945086 15.97330039195972, 50.66136807360571 16.34271804539089 M50.66136807360571 16.34271804539089 C50.24400093570765 16.59572845710624, 49.8266337978096 16.84873886882159, 49.59242976407678 16.990714730406093 M50.66136807360571 16.34271804539089 C50.417254793403025 16.49070095041862, 50.17314151320035 16.638683855446356, 49.59242976407678 16.990714730406093 M49.59242976407678 16.990714730406093 C49.17422465576335 17.208892067540056, 48.75601954744992 17.427069404674018, 48.48417041279239 17.56889292409717 M49.59242976407678 16.990714730406093 C49.227589231068 17.18105180278526, 48.86274869805923 17.371388875164424, 48.48417041279239 17.56889292409717 M48.48417041279239 17.56889292409717 C48.159602017210354 17.712569724841966, 47.83503362162831 17.856246525586762, 47.341144095147804 18.07487676824742 M48.48417041279239 17.56889292409717 C48.22859078107779 17.68203044555682, 47.9730111493632 17.795167967016464, 47.341144095147804 18.07487676824742 M47.341144095147804 18.07487676824742 C46.972984477119155 18.210362910912167, 46.604824859090506 18.345849053576913, 46.16804775146062 18.506587066708033 M47.341144095147804 18.07487676824742 C46.9146310564418 18.23183750913454, 46.4881180177358 18.388798250021658, 46.16804775146062 18.506587066708033 M46.16804775146062 18.506587066708033 C45.75095869906727 18.630376908113266, 45.333869646673925 18.7541667495185, 44.96970188623541 18.86224982926107 M46.16804775146062 18.506587066708033 C45.73149524077034 18.63615356037002, 45.29494273008006 18.765720054032005, 44.96970188623541 18.86224982926107 M44.96970188623541 18.86224982926107 C44.53481542505224 18.961509826126754, 44.09992896386906 19.060769822992437, 43.751030759676766 19.140403561325773 M44.96970188623541 18.86224982926107 C44.538063852683 18.960768393718006, 44.106425819130585 19.05928695817494, 43.751030759676766 19.140403561325773 M43.751030759676766 19.140403561325773 C43.33348482992543 19.207909149130924, 42.91593890017409 19.275414736936074, 42.51704215284788 19.3399052695533 M43.751030759676766 19.140403561325773 C43.3990307515084 19.1973121928456, 43.04703074334004 19.25422082436543, 42.51704215284788 19.3399052695533 M42.51704215284788 19.3399052695533 C42.03217044887829 19.386680259691705, 41.547298744908694 19.43345524983011, 41.2728067896239 19.45993515863156 M42.51704215284788 19.3399052695533 C42.05742431951798 19.384244049163318, 41.59780648618808 19.428582828773333, 41.2728067896239 19.45993515863156 M41.2728067896239 19.45993515863156 C40.977127107811654 19.46941703052169, 40.68144742599941 19.47889890241182, 40.02343750000001 19.5 M41.2728067896239 19.45993515863156 C40.8514101415571 19.473448528936245, 40.4300134934903 19.486961899240928, 40.02343750000001 19.5 M40.02343750000001 19.5 C40.02343750000001 19.5, 40.02343750000001 19.5, 40.0234375 19.5 M40.02343750000001 19.5 C40.02343750000001 19.5, 40.02343750000001 19.5, 40.0234375 19.5 M40.0234375 19.5 C21.02031290305197 19.5, 2.0171883061039395 19.5, -40.02343749999999 19.5 M40.0234375 19.5 C11.19308910156498 19.5, -17.63725929687004 19.5, -40.02343749999999 19.5 M-40.02343749999999 19.5 C-40.296692952211984 19.491237229507032, -40.569948404423975 19.482474459014067, -41.27280678962389 19.45993515863156 M-40.02343749999999 19.5 C-40.28099454490233 19.49174064687436, -40.538551589804655 19.483481293748717, -41.27280678962389 19.45993515863156 M-41.27280678962389 19.45993515863156 C-41.767990155915754 19.41216541483051, -42.26317352220761 19.364395671029467, -42.51704215284787 19.3399052695533 M-41.27280678962389 19.45993515863156 C-41.70016995443826 19.41870794810132, -42.12753311925263 19.377480737571084, -42.51704215284787 19.3399052695533 M-42.51704215284787 19.3399052695533 C-42.946630377693424 19.27045277686671, -43.37621860253897 19.20100028418012, -43.75103075967676 19.140403561325773 M-42.51704215284787 19.3399052695533 C-42.9542672269791 19.26921811029885, -43.391492301110326 19.198530951044404, -43.75103075967676 19.140403561325773 M-43.75103075967676 19.140403561325773 C-44.107357336489635 19.05907434541645, -44.46368391330251 18.977745129507134, -44.969701886235384 18.862249829261074 M-43.75103075967676 19.140403561325773 C-44.146791341323244 19.05007379114411, -44.54255192296972 18.959744020962454, -44.969701886235384 18.862249829261074 M-44.969701886235384 18.862249829261074 C-45.34479315285371 18.750924710222993, -45.71988441947204 18.63959959118491, -46.16804775146059 18.506587066708043 M-44.969701886235384 18.862249829261074 C-45.28002522662338 18.770147490754372, -45.590348567011375 18.67804515224767, -46.16804775146059 18.506587066708043 M-46.16804775146059 18.506587066708043 C-46.63342209420142 18.335325006706153, -47.09879643694225 18.16406294670426, -47.3411440951478 18.074876768247425 M-46.16804775146059 18.506587066708043 C-46.41135243223268 18.4170486951001, -46.654657113004774 18.327510323492156, -47.3411440951478 18.074876768247425 M-47.3411440951478 18.074876768247425 C-47.73817921180837 17.899121099730063, -48.13521432846895 17.723365431212702, -48.48417041279238 17.568892924097174 M-47.3411440951478 18.074876768247425 C-47.66875980536328 17.92985101170978, -47.99637551557877 17.78482525517213, -48.48417041279238 17.568892924097174 M-48.48417041279238 17.568892924097174 C-48.79876073918445 17.404771352323152, -49.11335106557652 17.24064978054913, -49.59242976407678 16.990714730406097 M-48.48417041279238 17.568892924097174 C-48.735617434947955 17.437713173698114, -48.987064457103536 17.306533423299054, -49.59242976407678 16.990714730406097 M-49.59242976407678 16.990714730406097 C-49.869499906769825 16.82275318166068, -50.14657004946287 16.654791632915266, -50.661368073605686 16.3427180453909 M-49.59242976407678 16.990714730406097 C-49.898666252920414 16.80507237122372, -50.20490274176405 16.61943001204134, -50.661368073605686 16.3427180453909 M-50.661368073605686 16.3427180453909 C-50.88809213878446 16.184565152248783, -51.11481620396323 16.02641225910667, -51.68659284457871 15.627565626425156 M-50.661368073605686 16.3427180453909 C-50.89669920580652 16.17856123488812, -51.132030338007354 16.014404424385344, -51.68659284457871 15.627565626425156 M-51.68659284457871 15.627565626425156 C-52.01986166031784 15.361792614528849, -52.35313047605696 15.096019602632541, -52.663891208501866 14.848196188198125 M-51.68659284457871 15.627565626425156 C-52.018965468694105 15.362507303500115, -52.3513380928095 15.097448980575074, -52.663891208501866 14.848196188198125 M-52.663891208501866 14.848196188198125 C-52.9820410040928 14.559260961624751, -53.30019079968373 14.270325735051378, -53.589247236767974 14.007812326905697 M-52.663891208501866 14.848196188198125 C-52.88484993652496 14.64752731765513, -53.10580866454805 14.446858447112138, -53.589247236767974 14.007812326905697 M-53.589247236767974 14.007812326905697 C-53.93081495535776 13.655115614230516, -54.27238267394755 13.302418901555336, -54.458858442968655 13.109867360095677 M-53.589247236767974 14.007812326905697 C-53.91677295956561 13.669615127755202, -54.24429868236325 13.331417928604708, -54.458858442968655 13.109867360095677 M-54.458858442968655 13.109867360095677 C-54.69183622697488 12.836198398190508, -54.9248140109811 12.562529436285336, -55.269151408126575 12.158051136245307 M-54.458858442968655 13.109867360095677 C-54.627406710484074 12.911880974403948, -54.7959549779995 12.713894588712218, -55.269151408126575 12.158051136245307 M-55.269151408126575 12.158051136245307 C-55.55134200252503 11.779941447843388, -55.8335325969235 11.401831759441471, -56.016796464640635 11.156274872382316 M-55.269151408126575 12.158051136245307 C-55.54916989087071 11.782851879576743, -55.82918837361484 11.407652622908179, -56.016796464640635 11.156274872382316 M-56.016796464640635 11.156274872382316 C-56.19618615268196 10.880684138674761, -56.375575840723286 10.605093404967207, -56.69872137860425 10.108655082055249 M-56.016796464640635 11.156274872382316 C-56.26139630912237 10.780503827003471, -56.5059961536041 10.404732781624627, -56.69872137860425 10.108655082055249 M-56.69872137860425 10.108655082055249 C-56.928479440951335 9.700696376831353, -57.15823750329842 9.292737671607455, -57.312123974273504 9.019496659696289 M-56.69872137860425 10.108655082055249 C-56.85117633118008 9.837955876018905, -57.00363128375591 9.56725666998256, -57.312123974273504 9.019496659696289 M-57.312123974273504 9.019496659696289 C-57.47174133133731 8.688047802488958, -57.63135868840112 8.356598945281629, -57.85448364880834 7.893275190886686 M-57.312123974273504 9.019496659696289 C-57.51534264378368 8.597508744275434, -57.71856131329387 8.17552082885458, -57.85448364880834 7.893275190886686 M-57.85448364880834 7.893275190886686 C-58.0367991566468 7.442952361695147, -58.219114664485254 6.992629532503607, -58.323571729970325 6.73461856121551 M-57.85448364880834 7.893275190886686 C-57.99440110422676 7.5476763708832255, -58.13431855964517 7.202077550879764, -58.323571729970325 6.73461856121551 M-58.323571729970325 6.73461856121551 C-58.45451324333895 6.34024358564615, -58.58545475670758 5.945868610076792, -58.71746063421488 5.5482879393051325 M-58.323571729970325 6.73461856121551 C-58.45398552059667 6.34183300246471, -58.58439931122301 5.949047443713909, -58.71746063421488 5.5482879393051325 M-58.71746063421488 5.5482879393051325 C-58.80074362339032 5.23069380650335, -58.88402661256576 4.913099673701568, -59.03453178754556 4.339158212148136 M-58.71746063421488 5.5482879393051325 C-58.78225131180059 5.301213005213519, -58.847041989386305 5.054138071121906, -59.03453178754556 4.339158212148136 M-59.03453178754556 4.339158212148136 C-59.1229331320225 3.8852359918897936, -59.211334476499445 3.4313137716314515, -59.273482276581774 3.112197953150904 M-59.03453178754556 4.339158212148136 C-59.112698578898105 3.937788259110008, -59.190865370250656 3.5364183060718797, -59.273482276581774 3.112197953150904 M-59.273482276581774 3.112197953150904 C-59.31790542441568 2.7676607908939053, -59.36232857224959 2.423123628636906, -59.43333020250937 1.872449005199809 M-59.273482276581774 3.112197953150904 C-59.328451187159516 2.6858699375491093, -59.38342009773726 2.259541921947315, -59.43333020250937 1.872449005199809 M-59.43333020250937 1.872449005199809 C-59.45188305079953 1.583473417490892, -59.4704358990897 1.294497829781975, -59.51341871591342 0.6250057626472781 M-59.43333020250937 1.872449005199809 C-59.46099672800125 1.4415205386462897, -59.48866325349314 1.0105920720927704, -59.51341871591342 0.6250057626472781 M-59.51341871591342 0.6250057626472781 C-59.51341871591342 0.179584277148713, -59.51341871591342 -0.26583720834985214, -59.51341871591342 -0.6250057626472687 M-59.51341871591342 0.6250057626472781 C-59.51341871591342 0.20912447237584447, -59.51341871591342 -0.2067568178955892, -59.51341871591342 -0.6250057626472687 M-59.51341871591342 -0.6250057626472687 C-59.48324122949297 -1.095044472474402, -59.45306374307251 -1.5650831823015352, -59.43333020250937 -1.8724490051997822 M-59.51341871591342 -0.6250057626472687 C-59.481560883272344 -1.1212172212116092, -59.44970305063127 -1.6174286797759498, -59.43333020250937 -1.8724490051997822 M-59.43333020250937 -1.8724490051997822 C-59.39807930948946 -2.1458479703860163, -59.36282841646955 -2.4192469355722506, -59.273482276581774 -3.112197953150895 M-59.43333020250937 -1.8724490051997822 C-59.388062208461434 -2.2235386278590052, -59.34279421441351 -2.5746282505182285, -59.273482276581774 -3.112197953150895 M-59.273482276581774 -3.112197953150895 C-59.196287084077184 -3.508578951452245, -59.1190918915726 -3.9049599497535943, -59.03453178754556 -4.339158212148126 M-59.273482276581774 -3.112197953150895 C-59.218474924680365 -3.394649079356696, -59.163467572778956 -3.677100205562497, -59.03453178754556 -4.339158212148126 M-59.03453178754556 -4.339158212148126 C-58.918411857818846 -4.781973830891982, -58.80229192809213 -5.224789449635838, -58.71746063421489 -5.548287939305123 M-59.03453178754556 -4.339158212148126 C-58.92794812053166 -4.745607928125611, -58.821364453517766 -5.152057644103096, -58.71746063421489 -5.548287939305123 M-58.71746063421489 -5.548287939305123 C-58.56702463643286 -6.001377195903347, -58.416588638650836 -6.454466452501571, -58.32357172997033 -6.734618561215485 M-58.71746063421489 -5.548287939305123 C-58.61889730107712 -5.845144994781575, -58.52033396793936 -6.142002050258027, -58.32357172997033 -6.734618561215485 M-58.32357172997033 -6.734618561215485 C-58.137838090950915 -7.193384240509061, -57.952104451931504 -7.652149919802637, -57.85448364880834 -7.893275190886676 M-58.32357172997033 -6.734618561215485 C-58.15003142997989 -7.163266457365317, -57.976491129989455 -7.59191435351515, -57.85448364880834 -7.893275190886676 M-57.85448364880834 -7.893275190886676 C-57.738032076548144 -8.135089372349466, -57.62158050428795 -8.376903553812255, -57.312123974273504 -9.019496659696282 M-57.85448364880834 -7.893275190886676 C-57.675338246995146 -8.265274450849331, -57.496192845181945 -8.637273710811984, -57.312123974273504 -9.019496659696282 M-57.312123974273504 -9.019496659696282 C-57.07635185929602 -9.438133924354318, -56.840579744318525 -9.856771189012354, -56.69872137860425 -10.108655082055243 M-57.312123974273504 -9.019496659696282 C-57.08469451212505 -9.423320699471166, -56.8572650499766 -9.827144739246048, -56.69872137860425 -10.108655082055243 M-56.69872137860425 -10.108655082055243 C-56.470355930570236 -10.459485734944554, -56.241990482536224 -10.810316387833867, -56.01679646464064 -11.156274872382308 M-56.69872137860425 -10.108655082055243 C-56.465853015224155 -10.466403422118205, -56.23298465184406 -10.824151762181167, -56.01679646464064 -11.156274872382308 M-56.01679646464064 -11.156274872382308 C-55.782166962299726 -11.470657030331742, -55.54753745995882 -11.785039188281173, -55.26915140812659 -12.158051136245302 M-56.01679646464064 -11.156274872382308 C-55.77116355062738 -11.485400599541265, -55.525530636614114 -11.814526326700221, -55.26915140812659 -12.158051136245302 M-55.26915140812659 -12.158051136245302 C-54.96410130475931 -12.51638034550311, -54.65905120139204 -12.87470955476092, -54.45885844296866 -13.10986736009567 M-55.26915140812659 -12.158051136245302 C-54.97024860098278 -12.509159381567969, -54.67134579383896 -12.860267626890636, -54.45885844296866 -13.10986736009567 M-54.45885844296866 -13.10986736009567 C-54.15652941313711 -13.42204690507172, -53.85420038330555 -13.73422645004777, -53.589247236767996 -14.007812326905677 M-54.45885844296866 -13.10986736009567 C-54.22334991203031 -13.353049253899501, -53.987841381091954 -13.596231147703334, -53.589247236767996 -14.007812326905677 M-53.589247236767996 -14.007812326905677 C-53.22811433551917 -14.335783672766894, -52.86698143427034 -14.663755018628109, -52.66389120850189 -14.848196188198107 M-53.589247236767996 -14.007812326905677 C-53.362137909230654 -14.214067009191567, -53.13502858169331 -14.420321691477456, -52.66389120850189 -14.848196188198107 M-52.66389120850189 -14.848196188198107 C-52.45463571694369 -15.015071874193275, -52.245380225385496 -15.181947560188444, -51.68659284457872 -15.627565626425149 M-52.66389120850189 -14.848196188198107 C-52.28901561210282 -15.147149500467785, -51.91414001570376 -15.446102812737461, -51.68659284457872 -15.627565626425149 M-51.68659284457872 -15.627565626425149 C-51.420955422637434 -15.81286279271273, -51.15531800069615 -15.998159959000311, -50.661368073605715 -16.342718045390885 M-51.68659284457872 -15.627565626425149 C-51.42425098594989 -15.8105639504086, -51.16190912732105 -15.99356227439205, -50.661368073605715 -16.342718045390885 M-50.661368073605715 -16.342718045390885 C-50.409032896710514 -16.495685112510856, -50.156697719815305 -16.648652179630822, -49.59242976407679 -16.99071473040609 M-50.661368073605715 -16.342718045390885 C-50.44055158013684 -16.47657830139347, -50.21973508666796 -16.61043855739606, -49.59242976407679 -16.99071473040609 M-49.59242976407679 -16.99071473040609 C-49.24346999431401 -17.172766818771933, -48.89451022455123 -17.354818907137776, -48.48417041279239 -17.56889292409717 M-49.59242976407679 -16.99071473040609 C-49.18705059649886 -17.20220078247375, -48.78167142892092 -17.41368683454141, -48.48417041279239 -17.56889292409717 M-48.48417041279239 -17.56889292409717 C-48.05626139613841 -17.75831555229991, -47.628352379484426 -17.947738180502647, -47.341144095147804 -18.07487676824742 M-48.48417041279239 -17.56889292409717 C-48.149782596336344 -17.71691649118012, -47.81539477988031 -17.864940058263063, -47.341144095147804 -18.07487676824742 M-47.341144095147804 -18.07487676824742 C-46.91110524790896 -18.233135039266845, -46.4810664006701 -18.39139331028627, -46.16804775146062 -18.506587066708033 M-47.341144095147804 -18.07487676824742 C-47.02436699106365 -18.19145367080584, -46.7075898869795 -18.30803057336426, -46.16804775146062 -18.506587066708033 M-46.16804775146062 -18.506587066708033 C-45.79413118904661 -18.617563539704424, -45.42021462663259 -18.728540012700815, -44.96970188623541 -18.862249829261067 M-46.16804775146062 -18.506587066708033 C-45.88740033619175 -18.58988174641149, -45.60675292092289 -18.673176426114942, -44.96970188623541 -18.862249829261067 M-44.96970188623541 -18.862249829261067 C-44.66182104032746 -18.932521623229277, -44.353940194419515 -19.002793417197488, -43.751030759676766 -19.140403561325773 M-44.96970188623541 -18.862249829261067 C-44.65366270133812 -18.934383710865458, -44.33762351644083 -19.006517592469848, -43.751030759676766 -19.140403561325773 M-43.751030759676766 -19.140403561325773 C-43.34487570219281 -19.206067561240268, -42.93872064470885 -19.27173156115476, -42.51704215284788 -19.3399052695533 M-43.751030759676766 -19.140403561325773 C-43.273894871296406 -19.21754319151503, -42.79675898291605 -19.294682821704292, -42.51704215284788 -19.3399052695533 M-42.51704215284788 -19.3399052695533 C-42.122427545183776 -19.377973266161153, -41.727812937519666 -19.41604126276901, -41.2728067896239 -19.45993515863156 M-42.51704215284788 -19.3399052695533 C-42.18819185080051 -19.371629062691458, -41.85934154875313 -19.403352855829617, -41.2728067896239 -19.45993515863156 M-41.2728067896239 -19.45993515863156 C-40.95435887277416 -19.47014716350366, -40.63591095592441 -19.480359168375767, -40.02343750000001 -19.5 M-41.2728067896239 -19.45993515863156 C-40.774344135191676 -19.4759198857605, -40.27588148075946 -19.491904612889446, -40.02343750000001 -19.5 M-40.02343750000001 -19.5 C-40.02343750000001 -19.5, -40.02343750000001 -19.5, -40.0234375 -19.5 M-40.02343750000001 -19.5 C-40.02343750000001 -19.5, -40.0234375 -19.5, -40.0234375 -19.5" stroke="#1f6f9c" stroke-width="1.3" fill="none" stroke-dasharray="0 0" style="fill:#56B4E9 !important;stroke:#1f6f9c !important"/></g><g class="label" style="color:#111111 !important" transform="translate(-47.1484375, -12)"><rect/><foreignObject width="94.296875" height="24"><div style="color: rgb(17, 17, 17) !important; display: table-cell; white-space: nowrap; line-height: 1.5; max-width: 200px; text-align: center;" xmlns="http://www.w3.org/1999/xhtml"><span style="color:#111111 !important" class="nodeLabel"><p>EXECUTE ▶</p></span></div></foreignObject></g></g></g></g></g><defs><filter id="my-svg-drop-shadow" height="130%" width="130%"><feDropShadow dx="4" dy="4" stdDeviation="0" flood-opacity="0.06" flood-color="#000000"/></filter></defs><defs><filter id="my-svg-drop-shadow-small" height="150%" width="150%"><feDropShadow dx="2" dy="2" stdDeviation="0" flood-opacity="0.06" flood-color="#000000"/></filter></defs></svg>