<?xml version="1.0" encoding="UTF-8" standalone="no"?>
<!DOCTYPE svg PUBLIC "-//W3C//DTD SVG 1.1//EN"
 "http://www.w3.org/Graphics/SVG/1.1/DTD/svg11.dtd">
<!-- Generated by graphviz version 14.1.4 (0)
 -->
<!-- Title: classes_AtlasEngine Pages: 1 -->
<svg width="933pt" height="325pt"
 viewBox="0.00 0.00 933.00 325.00" xmlns="http://www.w3.org/2000/svg" xmlns:xlink="http://www.w3.org/1999/xlink">
<g id="graph0" class="graph" transform="scale(1 1) rotate(0) translate(4 321)">
<title>classes_AtlasEngine</title>
<polygon fill="white" stroke="none" points="-4,4 -4,-321 929.38,-321 929.38,4 -4,4"/>
<!-- prd_taskmaster.backend.Backend -->
<g id="node1" class="node">
<title>prd_taskmaster.backend.Backend</title>
<polygon fill="none" stroke="black" points="0,-177 0,-316.5 244,-316.5 244,-177 0,-177"/>
<text xml:space="preserve" text-anchor="start" x="98.38" y="-299.75" font-family="Times,serif" font-size="14.00">Backend</text>
<polyline fill="none" stroke="black" points="0,-292 244,-292"/>
<text xml:space="preserve" text-anchor="start" x="94.62" y="-275.25" font-family="Times,serif" font-size="14.00">name : str</text>
<polyline fill="none" stroke="black" points="0,-267.5 244,-267.5"/>
<text xml:space="preserve" text-anchor="start" x="8" y="-250.75" font-family="Times,serif" font-size="14.00">detect(): dict</text>
<text xml:space="preserve" text-anchor="start" x="8" y="-234.25" font-family="Times,serif" font-size="14.00">expand(task_ids, research, tag): dict</text>
<text xml:space="preserve" text-anchor="start" x="8" y="-217.75" font-family="Times,serif" font-size="14.00">init_project(): dict</text>
<text xml:space="preserve" text-anchor="start" x="8" y="-201.25" font-family="Times,serif" font-size="14.00">parse_prd(prd_path, num_tasks, tag): dict</text>
<text xml:space="preserve" text-anchor="start" x="8" y="-184.75" font-family="Times,serif" font-size="14.00">rate(tag, research): dict</text>
</g>
<!-- prd_taskmaster.cli_agent.CliAgentError -->
<g id="node2" class="node">
<title>prd_taskmaster.cli_agent.CliAgentError</title>
<polygon fill="none" stroke="black" points="262,-33.5 262,-107 356,-107 356,-33.5 262,-33.5"/>
<text xml:space="preserve" text-anchor="start" x="270" y="-90.25" font-family="Times,serif" font-size="14.00" fill="red">CliAgentError</text>
<polyline fill="none" stroke="black" points="262,-82.5 356,-82.5"/>
<text xml:space="preserve" text-anchor="start" x="297" y="-65.75" font-family="Times,serif" font-size="14.00" fill="red">kind</text>
<polyline fill="none" stroke="black" points="262,-58 356,-58"/>
<text xml:space="preserve" text-anchor="start" x="307.12" y="-41.25" font-family="Times,serif" font-size="14.00" fill="red"> </text>
</g>
<!-- prd_taskmaster.lib.CommandError -->
<g id="node3" class="node">
<title>prd_taskmaster.lib.CommandError</title>
<polygon fill="none" stroke="black" points="373.88,-25.25 373.88,-115.25 476.12,-115.25 476.12,-25.25 373.88,-25.25"/>
<text xml:space="preserve" text-anchor="start" x="381.88" y="-98.5" font-family="Times,serif" font-size="14.00" fill="red">CommandError</text>
<polyline fill="none" stroke="black" points="373.88,-90.75 476.12,-90.75"/>
<text xml:space="preserve" text-anchor="start" x="389.38" y="-74" font-family="Times,serif" font-size="14.00" fill="red">extra : dict</text>
<text xml:space="preserve" text-anchor="start" x="389.38" y="-57.5" font-family="Times,serif" font-size="14.00" fill="red">message : str</text>
<polyline fill="none" stroke="black" points="373.88,-49.75 476.12,-49.75"/>
<text xml:space="preserve" text-anchor="start" x="423.12" y="-33" font-family="Times,serif" font-size="14.00" fill="red"> </text>
</g>
<!-- prd_taskmaster.llm_client.LLMError -->
<g id="node4" class="node">
<title>prd_taskmaster.llm_client.LLMError</title>
<polygon fill="none" stroke="black" points="494.12,-33.5 494.12,-107 567.88,-107 567.88,-33.5 494.12,-33.5"/>
<text xml:space="preserve" text-anchor="start" x="502.12" y="-90.25" font-family="Times,serif" font-size="14.00" fill="red">LLMError</text>
<polyline fill="none" stroke="black" points="494.12,-82.5 567.88,-82.5"/>
<text xml:space="preserve" text-anchor="start" x="519" y="-65.75" font-family="Times,serif" font-size="14.00" fill="red">kind</text>
<polyline fill="none" stroke="black" points="494.12,-58 567.88,-58"/>
<text xml:space="preserve" text-anchor="start" x="529.12" y="-41.25" font-family="Times,serif" font-size="14.00" fill="red"> </text>
</g>
<!-- prd_taskmaster.backend.NativeBackend -->
<g id="node5" class="node">
<title>prd_taskmaster.backend.NativeBackend</title>
<polygon fill="none" stroke="black" points="0,-0.5 0,-140 244,-140 244,-0.5 0,-0.5"/>
<text xml:space="preserve" text-anchor="start" x="80.38" y="-123.25" font-family="Times,serif" font-size="14.00">NativeBackend</text>
<polyline fill="none" stroke="black" points="0,-115.5 244,-115.5"/>
<text xml:space="preserve" text-anchor="start" x="94.62" y="-98.75" font-family="Times,serif" font-size="14.00">name : str</text>
<polyline fill="none" stroke="black" points="0,-91 244,-91"/>
<text xml:space="preserve" text-anchor="start" x="8" y="-74.25" font-family="Times,serif" font-size="14.00">detect(): dict</text>
<text xml:space="preserve" text-anchor="start" x="8" y="-57.75" font-family="Times,serif" font-size="14.00">expand(task_ids, research, tag): dict</text>
<text xml:space="preserve" text-anchor="start" x="8" y="-41.25" font-family="Times,serif" font-size="14.00">init_project(): dict</text>
<text xml:space="preserve" text-anchor="start" x="8" y="-24.75" font-family="Times,serif" font-size="14.00">parse_prd(prd_path, num_tasks, tag): dict</text>
<text xml:space="preserve" text-anchor="start" x="8" y="-8.25" font-family="Times,serif" font-size="14.00">rate(tag, research): dict</text>
</g>
<!-- prd_taskmaster.backend.NativeBackend&#45;&gt;prd_taskmaster.backend.Backend -->
<g id="edge1" class="edge">
<title>prd_taskmaster.backend.NativeBackend&#45;&gt;prd_taskmaster.backend.Backend</title>
<path fill="none" stroke="black" d="M122,-140.47C122,-148.65 122,-157.04 122,-165.36"/>
<polygon fill="none" stroke="black" points="118.5,-165.1 122,-175.1 125.5,-165.1 118.5,-165.1"/>
</g>
<!-- prd_taskmaster.provider_resolver.ProviderHandle -->
<g id="node6" class="node">
<title>prd_taskmaster.provider_resolver.ProviderHandle</title>
<polygon fill="none" stroke="black" points="585.5,-0.5 585.5,-140 700.5,-140 700.5,-0.5 585.5,-0.5"/>
<text xml:space="preserve" text-anchor="start" x="600.25" y="-123.25" font-family="Times,serif" font-size="14.00">ProviderHandle</text>
<polyline fill="none" stroke="black" points="585.5,-115.5 700.5,-115.5"/>
<text xml:space="preserve" text-anchor="start" x="593.5" y="-98.75" font-family="Times,serif" font-size="14.00">kind : str</text>
<text xml:space="preserve" text-anchor="start" x="593.5" y="-82.25" font-family="Times,serif" font-size="14.00">model : str | None</text>
<text xml:space="preserve" text-anchor="start" x="593.5" y="-65.75" font-family="Times,serif" font-size="14.00">provider : str</text>
<text xml:space="preserve" text-anchor="start" x="593.5" y="-49.25" font-family="Times,serif" font-size="14.00">reason : str</text>
<text xml:space="preserve" text-anchor="start" x="593.5" y="-32.75" font-family="Times,serif" font-size="14.00">role : str</text>
<polyline fill="none" stroke="black" points="585.5,-25 700.5,-25"/>
<text xml:space="preserve" text-anchor="start" x="641.12" y="-8.25" font-family="Times,serif" font-size="14.00"> </text>
</g>
<!-- prd_taskmaster.pipeline._CASMiss -->
<g id="node7" class="node">
<title>prd_taskmaster.pipeline._CASMiss</title>
<polygon fill="none" stroke="black" points="719,-33.5 719,-107 795,-107 795,-33.5 719,-33.5"/>
<text xml:space="preserve" text-anchor="start" x="727" y="-90.25" font-family="Times,serif" font-size="14.00" fill="red">_CASMiss</text>
<polyline fill="none" stroke="black" points="719,-82.5 795,-82.5"/>
<text xml:space="preserve" text-anchor="start" x="740.88" y="-65.75" font-family="Times,serif" font-size="14.00" fill="red">actual</text>
<polyline fill="none" stroke="black" points="719,-58 795,-58"/>
<text xml:space="preserve" text-anchor="start" x="755.12" y="-41.25" font-family="Times,serif" font-size="14.00" fill="red"> </text>
</g>
<!-- prd_taskmaster.pipeline._IllegalTransition -->
<g id="node8" class="node">
<title>prd_taskmaster.pipeline._IllegalTransition</title>
<polygon fill="none" stroke="black" points="812.62,-25.25 812.62,-115.25 925.38,-115.25 925.38,-25.25 812.62,-25.25"/>
<text xml:space="preserve" text-anchor="start" x="820.62" y="-98.5" font-family="Times,serif" font-size="14.00" fill="red">_IllegalTransition</text>
<polyline fill="none" stroke="black" points="812.62,-90.75 925.38,-90.75"/>
<text xml:space="preserve" text-anchor="start" x="851.38" y="-74" font-family="Times,serif" font-size="14.00" fill="red">source</text>
<text xml:space="preserve" text-anchor="start" x="851.38" y="-57.5" font-family="Times,serif" font-size="14.00" fill="red">target</text>
<polyline fill="none" stroke="black" points="812.62,-49.75 925.38,-49.75"/>
<text xml:space="preserve" text-anchor="start" x="867.12" y="-33" font-family="Times,serif" font-size="14.00" fill="red"> </text>
</g>
</g>
</svg>
