<?xml version="1.0" encoding="UTF-8" standalone="no"?>
<!DOCTYPE svg PUBLIC "-//W3C//DTD SVG 1.1//EN"
 "http://www.w3.org/Graphics/SVG/1.1/DTD/svg11.dtd">
<!-- Generated by graphviz version 14.1.4 (0)
 -->
<!-- Title: packages_AtlasEngine Pages: 1 -->
<svg width="2445pt" height="548pt"
 viewBox="0.00 0.00 2445.00 548.00" xmlns="http://www.w3.org/2000/svg" xmlns:xlink="http://www.w3.org/1999/xlink">
<g id="graph0" class="graph" transform="scale(1 1) rotate(0) translate(4 544)">
<title>packages_AtlasEngine</title>
<polygon fill="white" stroke="none" points="-4,4 -4,-544 2441,-544 2441,4 -4,4"/>
<!-- prd_taskmaster -->
<g id="node1" class="node">
<title>prd_taskmaster</title>
<polygon fill="none" stroke="black" points="1070.62,-468 971.38,-468 971.38,-432 1070.62,-432 1070.62,-468"/>
<text xml:space="preserve" text-anchor="start" x="979.38" y="-445.5" font-family="Times,serif" font-size="14.00">prd_taskmaster</text>
</g>
<!-- prd_taskmaster.backend -->
<g id="node2" class="node">
<title>prd_taskmaster.backend</title>
<polygon fill="none" stroke="black" points="1113.62,-180 966.38,-180 966.38,-144 1113.62,-144 1113.62,-180"/>
<text xml:space="preserve" text-anchor="start" x="974.38" y="-157.5" font-family="Times,serif" font-size="14.00">prd_taskmaster.backend</text>
</g>
<!-- prd_taskmaster.backend&#45;&gt;prd_taskmaster -->
<g id="edge1" class="edge">
<title>prd_taskmaster.backend&#45;&gt;prd_taskmaster</title>
<path fill="none" stroke="black" d="M1080.59,-180.47C1095.11,-188.94 1109.88,-200.66 1118,-216 1140.46,-258.42 1131.91,-278.06 1118,-324 1105.82,-364.21 1073.57,-401 1049.57,-424.1"/>
<polygon fill="black" stroke="black" points="1042.37,-430.85 1046.59,-420.73 1045.13,-428.26 1049.67,-424.01 1049.67,-424.01 1049.67,-424.01 1045.13,-428.26 1052.74,-427.29 1042.37,-430.85"/>
</g>
<!-- prd_taskmaster.cli_agent -->
<g id="node6" class="node">
<title>prd_taskmaster.cli_agent</title>
<polygon fill="none" stroke="black" points="631.88,-252 480.12,-252 480.12,-216 631.88,-216 631.88,-252"/>
<text xml:space="preserve" text-anchor="start" x="488.12" y="-229.5" font-family="Times,serif" font-size="14.00">prd_taskmaster.cli_agent</text>
</g>
<!-- prd_taskmaster.backend&#45;&gt;prd_taskmaster.cli_agent -->
<g id="edge2" class="edge">
<title>prd_taskmaster.backend&#45;&gt;prd_taskmaster.cli_agent</title>
<path fill="none" stroke="black" d="M966.12,-171.75C886.82,-181.42 757.23,-198.03 646,-216 645,-216.16 644,-216.32 643,-216.49"/>
<polygon fill="black" stroke="black" points="633.26,-218.14 642.37,-212.03 636.99,-217.51 643.12,-216.47 643.12,-216.47 643.12,-216.47 636.99,-217.51 643.87,-220.91 633.26,-218.14"/>
</g>
<!-- prd_taskmaster.economy -->
<g id="node8" class="node">
<title>prd_taskmaster.economy</title>
<polygon fill="none" stroke="black" points="631.25,-468 478.75,-468 478.75,-432 631.25,-432 631.25,-468"/>
<text xml:space="preserve" text-anchor="start" x="486.75" y="-445.5" font-family="Times,serif" font-size="14.00">prd_taskmaster.economy</text>
</g>
<!-- prd_taskmaster.backend&#45;&gt;prd_taskmaster.economy -->
<g id="edge3" class="edge">
<title>prd_taskmaster.backend&#45;&gt;prd_taskmaster.economy</title>
<path fill="none" stroke="black" d="M966,-164.45C819.48,-168.1 503.72,-180.09 471,-216 415.63,-276.76 489.81,-376.72 530.92,-423.44"/>
<polygon fill="black" stroke="black" points="537.6,-430.88 527.57,-426.44 535.07,-428.06 530.92,-423.44 530.92,-423.44 530.92,-423.44 535.07,-428.06 534.27,-420.43 537.6,-430.88"/>
</g>
<!-- prd_taskmaster.fleet -->
<g id="node10" class="node">
<title>prd_taskmaster.fleet</title>
<polygon fill="none" stroke="black" points="968.12,-396 841.88,-396 841.88,-360 968.12,-360 968.12,-396"/>
<text xml:space="preserve" text-anchor="start" x="849.88" y="-373.5" font-family="Times,serif" font-size="14.00">prd_taskmaster.fleet</text>
</g>
<!-- prd_taskmaster.backend&#45;&gt;prd_taskmaster.fleet -->
<g id="edge4" class="edge">
<title>prd_taskmaster.backend&#45;&gt;prd_taskmaster.fleet</title>
<path fill="none" stroke="black" d="M1040.62,-180.44C1040.84,-212.26 1037.09,-280.44 1004,-324 994.27,-336.8 980.54,-346.86 966.39,-354.61"/>
<polygon fill="black" stroke="black" points="957.66,-359.05 964.53,-350.5 961.03,-357.34 966.57,-354.51 966.57,-354.51 966.57,-354.51 961.03,-357.34 968.61,-358.52 957.66,-359.05"/>
</g>
<!-- prd_taskmaster.lib -->
<g id="node11" class="node">
<title>prd_taskmaster.lib</title>
<polygon fill="none" stroke="black" points="1405.25,-540 1288.75,-540 1288.75,-504 1405.25,-504 1405.25,-540"/>
<text xml:space="preserve" text-anchor="start" x="1296.75" y="-517.5" font-family="Times,serif" font-size="14.00">prd_taskmaster.lib</text>
</g>
<!-- prd_taskmaster.backend&#45;&gt;prd_taskmaster.lib -->
<g id="edge5" class="edge">
<title>prd_taskmaster.backend&#45;&gt;prd_taskmaster.lib</title>
<path fill="none" stroke="black" d="M1045.08,-180.45C1049.63,-198.43 1055.02,-227.26 1051,-252 1045.6,-285.3 1041.12,-293.36 1027,-324 1003.56,-374.88 976.99,-378.02 962,-432 957.72,-447.42 951.49,-455.94 962,-468 1002.08,-513.97 1177.55,-521.45 1277.2,-521.87"/>
<polygon fill="black" stroke="black" points="1287.15,-521.89 1277.15,-526.37 1283.37,-521.88 1277.15,-521.87 1277.15,-521.87 1277.15,-521.87 1283.37,-521.88 1277.16,-517.37 1287.15,-521.89"/>
</g>
<!-- prd_taskmaster.llm_client -->
<g id="node12" class="node">
<title>prd_taskmaster.llm_client</title>
<polygon fill="none" stroke="black" points="740.88,-324 583.12,-324 583.12,-288 740.88,-288 740.88,-324"/>
<text xml:space="preserve" text-anchor="start" x="591.12" y="-301.5" font-family="Times,serif" font-size="14.00">prd_taskmaster.llm_client</text>
</g>
<!-- prd_taskmaster.backend&#45;&gt;prd_taskmaster.llm_client -->
<g id="edge6" class="edge">
<title>prd_taskmaster.backend&#45;&gt;prd_taskmaster.llm_client</title>
<path fill="none" stroke="black" d="M966.07,-164.06C872.58,-167 718.97,-177.71 679,-216 663.03,-231.3 659.47,-256.64 659.51,-276.38"/>
<polygon fill="black" stroke="black" points="659.86,-286.3 655.01,-276.47 659.73,-282.52 659.51,-276.31 659.51,-276.31 659.51,-276.31 659.73,-282.52 664.01,-276.15 659.86,-286.3"/>
</g>
<!-- prd_taskmaster.parallel -->
<g id="node14" class="node">
<title>prd_taskmaster.parallel</title>
<polygon fill="none" stroke="black" points="1231.38,-468 1088.62,-468 1088.62,-432 1231.38,-432 1231.38,-468"/>
<text xml:space="preserve" text-anchor="start" x="1096.62" y="-445.5" font-family="Times,serif" font-size="14.00">prd_taskmaster.parallel</text>
</g>
<!-- prd_taskmaster.backend&#45;&gt;prd_taskmaster.parallel -->
<g id="edge7" class="edge">
<title>prd_taskmaster.backend&#45;&gt;prd_taskmaster.parallel</title>
<path fill="none" stroke="black" d="M1087.54,-180.43C1105.3,-188.9 1124.43,-200.63 1138,-216 1193.43,-278.82 1217.57,-315.6 1194,-396 1191.29,-405.25 1186.41,-414.41 1181.18,-422.45"/>
<polygon fill="black" stroke="black" points="1175.45,-430.64 1177.5,-419.86 1177.62,-427.54 1181.19,-422.44 1181.19,-422.44 1181.19,-422.44 1177.62,-427.54 1184.88,-425.03 1175.45,-430.64"/>
</g>
<!-- prd_taskmaster.provider_resolver -->
<g id="node17" class="node">
<title>prd_taskmaster.provider_resolver</title>
<polygon fill="none" stroke="black" points="886.12,-252 687.88,-252 687.88,-216 886.12,-216 886.12,-252"/>
<text xml:space="preserve" text-anchor="start" x="695.88" y="-229.5" font-family="Times,serif" font-size="14.00">prd_taskmaster.provider_resolver</text>
</g>
<!-- prd_taskmaster.backend&#45;&gt;prd_taskmaster.provider_resolver -->
<g id="edge8" class="edge">
<title>prd_taskmaster.backend&#45;&gt;prd_taskmaster.provider_resolver</title>
<path fill="none" stroke="black" d="M976.81,-180.48C941.51,-190.25 897.35,-202.47 860.5,-212.66"/>
<polygon fill="black" stroke="black" points="851,-215.29 859.43,-208.29 854.64,-214.28 860.63,-212.63 860.63,-212.63 860.63,-212.63 854.64,-214.28 861.83,-216.96 851,-215.29"/>
</g>
<!-- prd_taskmaster.validation -->
<g id="node28" class="node">
<title>prd_taskmaster.validation</title>
<polygon fill="none" stroke="black" points="1641.12,-252 1484.88,-252 1484.88,-216 1641.12,-216 1641.12,-252"/>
<text xml:space="preserve" text-anchor="start" x="1492.88" y="-229.5" font-family="Times,serif" font-size="14.00">prd_taskmaster.validation</text>
</g>
<!-- prd_taskmaster.backend&#45;&gt;prd_taskmaster.validation -->
<g id="edge9" class="edge">
<title>prd_taskmaster.backend&#45;&gt;prd_taskmaster.validation</title>
<path fill="none" stroke="black" d="M1114.1,-172.92C1208.72,-185.58 1372.29,-207.47 1473.69,-221.05"/>
<polygon fill="black" stroke="black" points="1483.31,-222.33 1472.8,-225.47 1479.56,-221.83 1473.4,-221.01 1473.4,-221.01 1473.4,-221.01 1479.56,-221.83 1474,-216.55 1483.31,-222.33"/>
</g>
<!-- prd_taskmaster.batch -->
<g id="node3" class="node">
<title>prd_taskmaster.batch</title>
<polygon fill="none" stroke="black" points="1234.75,-108 1103.25,-108 1103.25,-72 1234.75,-72 1234.75,-108"/>
<text xml:space="preserve" text-anchor="start" x="1111.25" y="-85.5" font-family="Times,serif" font-size="14.00">prd_taskmaster.batch</text>
</g>
<!-- prd_taskmaster.batch&#45;&gt;prd_taskmaster -->
<g id="edge10" class="edge">
<title>prd_taskmaster.batch&#45;&gt;prd_taskmaster</title>
<path fill="none" stroke="black" d="M1171.23,-108.45C1174.44,-135.21 1180,-188 1180,-233 1180,-233 1180,-233 1180,-307 1180,-364.41 1121.62,-404.38 1075.61,-426.97"/>
<polygon fill="black" stroke="black" points="1066.81,-431.14 1073.92,-422.79 1070.23,-429.52 1075.85,-426.86 1075.85,-426.86 1075.85,-426.86 1070.23,-429.52 1077.78,-430.92 1066.81,-431.14"/>
</g>
<!-- prd_taskmaster.batch&#45;&gt;prd_taskmaster.backend -->
<g id="edge11" class="edge">
<title>prd_taskmaster.batch&#45;&gt;prd_taskmaster.backend</title>
<path fill="none" stroke="black" d="M1136.78,-108.48C1120.03,-117.57 1099.37,-128.78 1081.44,-138.51"/>
<polygon fill="black" stroke="black" points="1072.88,-143.16 1079.52,-134.43 1076.2,-141.35 1081.67,-138.39 1081.67,-138.39 1081.67,-138.39 1076.2,-141.35 1083.82,-142.34 1072.88,-143.16"/>
</g>
<!-- prd_taskmaster.capabilities -->
<g id="node4" class="node">
<title>prd_taskmaster.capabilities</title>
<polygon fill="none" stroke="black" points="305.88,-180 142.12,-180 142.12,-144 305.88,-144 305.88,-180"/>
<text xml:space="preserve" text-anchor="start" x="150.12" y="-157.5" font-family="Times,serif" font-size="14.00">prd_taskmaster.capabilities</text>
</g>
<!-- prd_taskmaster.batch&#45;&gt;prd_taskmaster.capabilities -->
<g id="edge12" class="edge">
<title>prd_taskmaster.batch&#45;&gt;prd_taskmaster.capabilities</title>
<path fill="none" stroke="black" d="M1102.95,-95.63C1052.56,-99.13 981.41,-104 919,-108 652.84,-125.05 584.86,-112.7 320,-144 319.01,-144.12 318.01,-144.24 317.01,-144.36"/>
<polygon fill="black" stroke="black" points="307.33,-145.65 316.65,-139.87 311.08,-145.15 317.25,-144.33 317.25,-144.33 317.25,-144.33 311.08,-145.15 317.84,-148.79 307.33,-145.65"/>
</g>
<!-- prd_taskmaster.batch&#45;&gt;prd_taskmaster.fleet -->
<g id="edge13" class="edge">
<title>prd_taskmaster.batch&#45;&gt;prd_taskmaster.fleet</title>
<path fill="none" stroke="black" d="M1162.98,-108.26C1147.29,-150.86 1101.14,-262.02 1027,-324 1011.38,-337.06 992.05,-347.41 973.41,-355.37"/>
<polygon fill="black" stroke="black" points="964.29,-359.09 971.85,-351.15 967.79,-357.66 973.55,-355.31 973.55,-355.31 973.55,-355.31 967.79,-357.66 975.24,-359.48 964.29,-359.09"/>
</g>
<!-- prd_taskmaster.batch&#45;&gt;prd_taskmaster.lib -->
<g id="edge14" class="edge">
<title>prd_taskmaster.batch&#45;&gt;prd_taskmaster.lib</title>
<path fill="none" stroke="black" d="M1213.96,-108.49C1293.37,-142.58 1452.86,-226.47 1482,-360 1485.41,-375.63 1492.12,-383.61 1482,-396 1431.21,-458.16 1355.79,-369.84 1305,-432 1289.53,-450.93 1304.48,-476.5 1320.67,-495.38"/>
<polygon fill="black" stroke="black" points="1327.27,-502.63 1317.21,-498.27 1324.72,-499.84 1320.54,-495.24 1320.54,-495.24 1320.54,-495.24 1324.72,-499.84 1323.87,-492.21 1327.27,-502.63"/>
</g>
<!-- prd_taskmaster.preflight -->
<g id="node16" class="node">
<title>prd_taskmaster.preflight</title>
<polygon fill="none" stroke="black" points="1845.38,-180 1696.62,-180 1696.62,-144 1845.38,-144 1845.38,-180"/>
<text xml:space="preserve" text-anchor="start" x="1704.62" y="-157.5" font-family="Times,serif" font-size="14.00">prd_taskmaster.preflight</text>
</g>
<!-- prd_taskmaster.batch&#45;&gt;prd_taskmaster.preflight -->
<g id="edge15" class="edge">
<title>prd_taskmaster.batch&#45;&gt;prd_taskmaster.preflight</title>
<path fill="none" stroke="black" d="M1235.15,-98.69C1344.74,-111.43 1563.88,-136.92 1685.22,-151.03"/>
<polygon fill="black" stroke="black" points="1695.08,-152.17 1684.63,-155.49 1691.32,-151.74 1685.15,-151.02 1685.15,-151.02 1685.15,-151.02 1691.32,-151.74 1685.66,-146.55 1695.08,-152.17"/>
</g>
<!-- prd_taskmaster.providers -->
<g id="node18" class="node">
<title>prd_taskmaster.providers</title>
<polygon fill="none" stroke="black" points="410.62,-324 257.38,-324 257.38,-288 410.62,-288 410.62,-324"/>
<text xml:space="preserve" text-anchor="start" x="265.38" y="-301.5" font-family="Times,serif" font-size="14.00">prd_taskmaster.providers</text>
</g>
<!-- prd_taskmaster.batch&#45;&gt;prd_taskmaster.providers -->
<g id="edge16" class="edge">
<title>prd_taskmaster.batch&#45;&gt;prd_taskmaster.providers</title>
<path fill="none" stroke="black" d="M1102.87,-95.55C921.03,-108.08 426.36,-142.28 418,-144 370.51,-153.79 361.05,-164.81 315,-180 263.74,-196.91 231.02,-172.54 199,-216 189.51,-228.88 189.99,-238.78 199,-252 210.37,-268.68 227.85,-280.11 246.51,-287.94"/>
<polygon fill="black" stroke="black" points="255.82,-291.5 244.88,-292.13 252.29,-290.15 246.48,-287.93 246.48,-287.93 246.48,-287.93 252.29,-290.15 248.09,-283.72 255.82,-291.5"/>
</g>
<!-- prd_taskmaster.capabilities&#45;&gt;prd_taskmaster.lib -->
<g id="edge17" class="edge">
<title>prd_taskmaster.capabilities&#45;&gt;prd_taskmaster.lib</title>
<path fill="none" stroke="black" d="M165.4,-180.41C110.88,-200.66 38,-239.9 38,-305 38,-305 38,-305 38,-379 38,-445.76 96.05,-445.78 159,-468 264.22,-505.15 1038.99,-517.35 1277.39,-520.25"/>
<polygon fill="black" stroke="black" points="1287.12,-520.37 1277.06,-524.74 1283.34,-520.32 1277.12,-520.25 1277.12,-520.25 1277.12,-520.25 1283.34,-520.32 1277.17,-515.75 1287.12,-520.37"/>
</g>
<!-- prd_taskmaster.mode_recommend -->
<g id="node13" class="node">
<title>prd_taskmaster.mode_recommend</title>
<polygon fill="none" stroke="black" points="423.5,-252 218.5,-252 218.5,-216 423.5,-216 423.5,-252"/>
<text xml:space="preserve" text-anchor="start" x="226.5" y="-229.5" font-family="Times,serif" font-size="14.00">prd_taskmaster.mode_recommend</text>
</g>
<!-- prd_taskmaster.capabilities&#45;&gt;prd_taskmaster.mode_recommend -->
<g id="edge18" class="edge">
<title>prd_taskmaster.capabilities&#45;&gt;prd_taskmaster.mode_recommend</title>
<path fill="none" stroke="black" d="M247.98,-180.3C260.1,-189.05 275,-199.81 288.17,-209.31"/>
<polygon fill="black" stroke="black" points="295.97,-214.94 285.23,-212.74 292.91,-212.73 287.87,-209.09 287.87,-209.09 287.87,-209.09 292.91,-212.73 290.5,-205.44 295.97,-214.94"/>
</g>
<!-- prd_taskmaster.cli -->
<g id="node5" class="node">
<title>prd_taskmaster.cli</title>
<polygon fill="none" stroke="black" points="1419.88,-36 1304.12,-36 1304.12,0 1419.88,0 1419.88,-36"/>
<text xml:space="preserve" text-anchor="start" x="1312.12" y="-13.5" font-family="Times,serif" font-size="14.00">prd_taskmaster.cli</text>
</g>
<!-- prd_taskmaster.cli&#45;&gt;prd_taskmaster -->
<g id="edge19" class="edge">
<title>prd_taskmaster.cli&#45;&gt;prd_taskmaster</title>
<path fill="none" stroke="black" d="M1357.34,-36.36C1340.64,-95.32 1278.36,-290.02 1158,-396 1145.88,-406.68 1112.2,-419.76 1081.28,-430.26"/>
<polygon fill="black" stroke="black" points="1072.09,-433.33 1080.15,-425.9 1075.67,-432.13 1081.57,-430.16 1081.57,-430.16 1081.57,-430.16 1075.67,-432.13 1083,-434.43 1072.09,-433.33"/>
</g>
<!-- prd_taskmaster.cli&#45;&gt;prd_taskmaster.backend -->
<g id="edge20" class="edge">
<title>prd_taskmaster.cli&#45;&gt;prd_taskmaster.backend</title>
<path fill="none" stroke="black" d="M1303.67,-25C1235.33,-32.96 1127.18,-48.79 1094,-72 1072.66,-86.93 1058.23,-113.25 1049.7,-133.41"/>
<polygon fill="black" stroke="black" points="1046.11,-142.45 1045.62,-131.49 1047.51,-138.93 1049.8,-133.15 1049.8,-133.15 1049.8,-133.15 1047.51,-138.93 1053.98,-134.81 1046.11,-142.45"/>
</g>
<!-- prd_taskmaster.cli&#45;&gt;prd_taskmaster.batch -->
<g id="edge21" class="edge">
<title>prd_taskmaster.cli&#45;&gt;prd_taskmaster.batch</title>
<path fill="none" stroke="black" d="M1313.8,-36.48C1287.56,-46 1254.91,-57.84 1227.25,-67.87"/>
<polygon fill="black" stroke="black" points="1218.07,-71.2 1225.94,-63.56 1221.62,-69.91 1227.47,-67.79 1227.47,-67.79 1227.47,-67.79 1221.62,-69.91 1229,-72.02 1218.07,-71.2"/>
</g>
<!-- prd_taskmaster.cli&#45;&gt;prd_taskmaster.capabilities -->
<g id="edge22" class="edge">
<title>prd_taskmaster.cli&#45;&gt;prd_taskmaster.capabilities</title>
<path fill="none" stroke="black" d="M1303.64,-20.24C1178.24,-23.54 874,-35.01 622,-72 508.03,-88.73 378.17,-120.14 298.65,-140.82"/>
<polygon fill="black" stroke="black" points="289.43,-143.23 297.97,-136.34 293.09,-142.27 299.1,-140.7 299.1,-140.7 299.1,-140.7 293.09,-142.27 300.24,-145.05 289.43,-143.23"/>
</g>
<!-- prd_taskmaster.context_pack -->
<g id="node7" class="node">
<title>prd_taskmaster.context_pack</title>
<polygon fill="none" stroke="black" points="910.12,-108 735.88,-108 735.88,-72 910.12,-72 910.12,-108"/>
<text xml:space="preserve" text-anchor="start" x="743.88" y="-85.5" font-family="Times,serif" font-size="14.00">prd_taskmaster.context_pack</text>
</g>
<!-- prd_taskmaster.cli&#45;&gt;prd_taskmaster.context_pack -->
<g id="edge23" class="edge">
<title>prd_taskmaster.cli&#45;&gt;prd_taskmaster.context_pack</title>
<path fill="none" stroke="black" d="M1303.79,-25.18C1219.77,-34.29 1059.7,-52.38 924,-72 923.18,-72.12 922.35,-72.24 921.51,-72.36"/>
<polygon fill="black" stroke="black" points="911.76,-73.83 920.98,-67.89 915.5,-73.27 921.65,-72.34 921.65,-72.34 921.65,-72.34 915.5,-73.27 922.31,-76.79 911.76,-73.83"/>
</g>
<!-- prd_taskmaster.cli&#45;&gt;prd_taskmaster.economy -->
<g id="edge24" class="edge">
<title>prd_taskmaster.cli&#45;&gt;prd_taskmaster.economy</title>
<path fill="none" stroke="black" d="M1303.85,-19.03C1100.89,-19.53 424.89,-24.81 214,-72 113.48,-94.49 0,-57.99 0,-161 0,-161 0,-161 0,-235 0,-333.96 311.05,-404.69 467.43,-433.99"/>
<polygon fill="black" stroke="black" points="477.21,-435.81 466.56,-438.41 473.5,-435.12 467.38,-433.98 467.38,-433.98 467.38,-433.98 473.5,-435.12 468.2,-429.56 477.21,-435.81"/>
</g>
<!-- prd_taskmaster.feedback -->
<g id="node9" class="node">
<title>prd_taskmaster.feedback</title>
<polygon fill="none" stroke="black" points="2408.5,-252 2257.5,-252 2257.5,-216 2408.5,-216 2408.5,-252"/>
<text xml:space="preserve" text-anchor="start" x="2265.5" y="-229.5" font-family="Times,serif" font-size="14.00">prd_taskmaster.feedback</text>
</g>
<!-- prd_taskmaster.cli&#45;&gt;prd_taskmaster.feedback -->
<g id="edge25" class="edge">
<title>prd_taskmaster.cli&#45;&gt;prd_taskmaster.feedback</title>
<path fill="none" stroke="black" d="M1420.04,-20.18C1621.82,-24.55 2282.38,-41.15 2315,-72 2350.68,-105.74 2346.06,-168.35 2339.52,-204.75"/>
<polygon fill="black" stroke="black" points="2337.61,-214.39 2335.14,-203.7 2338.35,-210.68 2339.55,-204.58 2339.55,-204.58 2339.55,-204.58 2338.35,-210.68 2343.97,-205.45 2337.61,-214.39"/>
</g>
<!-- prd_taskmaster.cli&#45;&gt;prd_taskmaster.fleet -->
<g id="edge26" class="edge">
<title>prd_taskmaster.cli&#45;&gt;prd_taskmaster.fleet</title>
<path fill="none" stroke="black" d="M1303.78,-21.61C1241.17,-26.13 1139.75,-38.44 1059,-72 1007.76,-93.3 985.74,-96.53 957,-144 915.2,-213.04 957.57,-247.12 933,-324 930.19,-332.78 925.98,-341.83 921.66,-349.92"/>
<polygon fill="black" stroke="black" points="916.84,-358.48 917.82,-347.56 918.69,-355.18 921.74,-349.77 921.74,-349.77 921.74,-349.77 918.69,-355.18 925.67,-351.97 916.84,-358.48"/>
</g>
<!-- prd_taskmaster.cli&#45;&gt;prd_taskmaster.lib -->
<g id="edge27" class="edge">
<title>prd_taskmaster.cli&#45;&gt;prd_taskmaster.lib</title>
<path fill="none" stroke="black" d="M1420.31,-19.87C1618.04,-23.16 2255.41,-36.41 2340,-72 2393.93,-94.69 2437,-102.49 2437,-161 2437,-161 2437,-161 2437,-379 2437,-461.54 2353.36,-445.31 2274,-468 2113.09,-514 1603.39,-520.25 1416.53,-520.97"/>
<polygon fill="black" stroke="black" points="1406.71,-521 1416.7,-516.46 1410.49,-520.99 1416.71,-520.96 1416.71,-520.96 1416.71,-520.96 1410.49,-520.99 1416.73,-525.46 1406.71,-521"/>
</g>
<!-- prd_taskmaster.cli&#45;&gt;prd_taskmaster.parallel -->
<g id="edge28" class="edge">
<title>prd_taskmaster.cli&#45;&gt;prd_taskmaster.parallel</title>
<path fill="none" stroke="black" d="M1375.68,-36.47C1411.67,-84.7 1502.61,-222.79 1449,-324 1409.64,-398.32 1313.2,-428.46 1242.52,-440.68"/>
<polygon fill="black" stroke="black" points="1233.05,-442.22 1242.19,-436.17 1236.78,-441.61 1242.92,-440.61 1242.92,-440.61 1242.92,-440.61 1236.78,-441.61 1243.64,-445.05 1233.05,-442.22"/>
</g>
<!-- prd_taskmaster.cli&#45;&gt;prd_taskmaster.preflight -->
<g id="edge29" class="edge">
<title>prd_taskmaster.cli&#45;&gt;prd_taskmaster.preflight</title>
<path fill="none" stroke="black" d="M1420.13,-24.26C1499.83,-32.21 1638.22,-48.84 1683,-72 1711.62,-86.8 1736.61,-114.32 1752.57,-134.85"/>
<polygon fill="black" stroke="black" points="1758.52,-142.75 1748.91,-137.47 1756.25,-139.73 1752.51,-134.76 1752.51,-134.76 1752.51,-134.76 1756.25,-139.73 1756.1,-132.06 1758.52,-142.75"/>
</g>
<!-- prd_taskmaster.cli&#45;&gt;prd_taskmaster.providers -->
<g id="edge30" class="edge">
<title>prd_taskmaster.cli&#45;&gt;prd_taskmaster.providers</title>
<path fill="none" stroke="black" d="M1303.87,-20.14C1069.94,-25.36 206.37,-50.87 133,-144 98.41,-187.9 184,-249.06 188,-252 206.59,-265.65 229.04,-276.09 250.71,-283.95"/>
<polygon fill="black" stroke="black" points="260.12,-287.2 249.2,-288.18 256.54,-285.96 250.67,-283.93 250.67,-283.93 250.67,-283.93 256.54,-285.96 252.14,-279.68 260.12,-287.2"/>
</g>
<!-- prd_taskmaster.setup_wizard -->
<g id="node20" class="node">
<title>prd_taskmaster.setup_wizard</title>
<polygon fill="none" stroke="black" points="601.12,-180 426.88,-180 426.88,-144 601.12,-144 601.12,-180"/>
<text xml:space="preserve" text-anchor="start" x="434.88" y="-157.5" font-family="Times,serif" font-size="14.00">prd_taskmaster.setup_wizard</text>
</g>
<!-- prd_taskmaster.cli&#45;&gt;prd_taskmaster.setup_wizard -->
<g id="edge31" class="edge">
<title>prd_taskmaster.cli&#45;&gt;prd_taskmaster.setup_wizard</title>
<path fill="none" stroke="black" d="M1303.65,-21.54C1168.15,-27.82 835.54,-45.49 727,-72 665.32,-87.06 598.4,-117.57 556.35,-138.64"/>
<polygon fill="black" stroke="black" points="547.56,-143.09 554.45,-134.56 550.94,-141.38 556.48,-138.57 556.48,-138.57 556.48,-138.57 550.94,-141.38 558.52,-142.58 547.56,-143.09"/>
</g>
<!-- prd_taskmaster.status -->
<g id="node22" class="node">
<title>prd_taskmaster.status</title>
<polygon fill="none" stroke="black" points="1784.5,-396 1651.5,-396 1651.5,-360 1784.5,-360 1784.5,-396"/>
<text xml:space="preserve" text-anchor="start" x="1659.5" y="-373.5" font-family="Times,serif" font-size="14.00">prd_taskmaster.status</text>
</g>
<!-- prd_taskmaster.cli&#45;&gt;prd_taskmaster.status -->
<g id="edge32" class="edge">
<title>prd_taskmaster.cli&#45;&gt;prd_taskmaster.status</title>
<path fill="none" stroke="black" d="M1420.11,-20.66C1509.11,-26.65 1669,-52.51 1669,-161 1669,-161 1669,-161 1669,-235 1669,-276.86 1688.26,-322.04 1702.63,-349.93"/>
<polygon fill="black" stroke="black" points="1707.27,-358.66 1698.6,-351.94 1705.5,-355.32 1702.57,-349.83 1702.57,-349.83 1702.57,-349.83 1705.5,-355.32 1706.55,-347.71 1707.27,-358.66"/>
</g>
<!-- prd_taskmaster.task_state -->
<g id="node24" class="node">
<title>prd_taskmaster.task_state</title>
<polygon fill="none" stroke="black" points="1439.75,-324 1284.25,-324 1284.25,-288 1439.75,-288 1439.75,-324"/>
<text xml:space="preserve" text-anchor="start" x="1292.25" y="-301.5" font-family="Times,serif" font-size="14.00">prd_taskmaster.task_state</text>
</g>
<!-- prd_taskmaster.cli&#45;&gt;prd_taskmaster.task_state -->
<g id="edge33" class="edge">
<title>prd_taskmaster.cli&#45;&gt;prd_taskmaster.task_state</title>
<path fill="none" stroke="black" d="M1362,-36.46C1362,-84.34 1362,-218.05 1362,-276.76"/>
<polygon fill="black" stroke="black" points="1362,-286.55 1357.5,-276.55 1362,-282.77 1362,-276.55 1362,-276.55 1362,-276.55 1362,-282.77 1366.5,-276.55 1362,-286.55"/>
</g>
<!-- prd_taskmaster.taskmaster -->
<g id="node25" class="node">
<title>prd_taskmaster.taskmaster</title>
<polygon fill="none" stroke="black" points="2102.38,-324 1941.62,-324 1941.62,-288 2102.38,-288 2102.38,-324"/>
<text xml:space="preserve" text-anchor="start" x="1949.62" y="-301.5" font-family="Times,serif" font-size="14.00">prd_taskmaster.taskmaster</text>
</g>
<!-- prd_taskmaster.cli&#45;&gt;prd_taskmaster.taskmaster -->
<g id="edge34" class="edge">
<title>prd_taskmaster.cli&#45;&gt;prd_taskmaster.taskmaster</title>
<path fill="none" stroke="black" d="M1420.15,-21.45C1492.18,-25.87 1617.87,-38.15 1720,-72 1784.18,-93.27 1799.31,-104.25 1854,-144 1911.54,-185.83 1969.4,-246.28 1999.92,-279.95"/>
<polygon fill="black" stroke="black" points="2006.26,-287 1996.23,-282.57 2003.74,-284.19 1999.58,-279.57 1999.58,-279.57 1999.58,-279.57 2003.74,-284.19 2002.92,-276.56 2006.26,-287"/>
</g>
<!-- prd_taskmaster.tasks -->
<g id="node26" class="node">
<title>prd_taskmaster.tasks</title>
<polygon fill="none" stroke="black" points="2200.62,-396 2071.38,-396 2071.38,-360 2200.62,-360 2200.62,-396"/>
<text xml:space="preserve" text-anchor="start" x="2079.38" y="-373.5" font-family="Times,serif" font-size="14.00">prd_taskmaster.tasks</text>
</g>
<!-- prd_taskmaster.cli&#45;&gt;prd_taskmaster.tasks -->
<g id="edge35" class="edge">
<title>prd_taskmaster.cli&#45;&gt;prd_taskmaster.tasks</title>
<path fill="none" stroke="black" d="M1420.26,-18.7C1501.93,-19.99 1654.01,-28.72 1775,-72 1834.56,-93.3 2080.7,-246.76 2111,-288 2124,-305.7 2130.25,-329.9 2133.24,-348.6"/>
<polygon fill="black" stroke="black" points="2134.59,-358.49 2128.78,-349.19 2134.08,-354.74 2133.24,-348.58 2133.24,-348.58 2133.24,-348.58 2134.08,-354.74 2137.7,-347.97 2134.59,-358.49"/>
</g>
<!-- prd_taskmaster.templates -->
<g id="node27" class="node">
<title>prd_taskmaster.templates</title>
<polygon fill="none" stroke="black" points="2306.38,-108 2151.62,-108 2151.62,-72 2306.38,-72 2306.38,-108"/>
<text xml:space="preserve" text-anchor="start" x="2159.62" y="-85.5" font-family="Times,serif" font-size="14.00">prd_taskmaster.templates</text>
</g>
<!-- prd_taskmaster.cli&#45;&gt;prd_taskmaster.templates -->
<g id="edge36" class="edge">
<title>prd_taskmaster.cli&#45;&gt;prd_taskmaster.templates</title>
<path fill="none" stroke="black" d="M1420.15,-20.66C1549.58,-24.85 1871.09,-38.07 2138,-72 2138.81,-72.1 2139.62,-72.21 2140.43,-72.32"/>
<polygon fill="black" stroke="black" points="2149.95,-73.67 2139.42,-76.72 2146.21,-73.14 2140.05,-72.26 2140.05,-72.26 2140.05,-72.26 2146.21,-73.14 2140.68,-67.81 2149.95,-73.67"/>
</g>
<!-- prd_taskmaster.cli&#45;&gt;prd_taskmaster.validation -->
<g id="edge37" class="edge">
<title>prd_taskmaster.cli&#45;&gt;prd_taskmaster.validation</title>
<path fill="none" stroke="black" d="M1388.54,-36.43C1402.45,-46.13 1419.37,-58.88 1433,-72 1477.76,-115.09 1521.37,-173.43 1544.96,-206.75"/>
<polygon fill="black" stroke="black" points="1550.64,-214.86 1541.21,-209.25 1548.47,-211.76 1544.9,-206.67 1544.9,-206.67 1544.9,-206.67 1548.47,-211.76 1548.58,-204.09 1550.64,-214.86"/>
</g>
<!-- prd_taskmaster.cli_agent&#45;&gt;prd_taskmaster.economy -->
<g id="edge38" class="edge">
<title>prd_taskmaster.cli_agent&#45;&gt;prd_taskmaster.economy</title>
<path fill="none" stroke="black" d="M555.92,-252.15C555.75,-288.93 555.34,-375.71 555.13,-420.76"/>
<polygon fill="black" stroke="black" points="555.09,-430.55 550.63,-420.53 555.1,-426.77 555.13,-420.55 555.13,-420.55 555.13,-420.55 555.1,-426.77 559.63,-420.57 555.09,-430.55"/>
</g>
<!-- prd_taskmaster.cli_agent&#45;&gt;prd_taskmaster.llm_client -->
<g id="edge39" class="edge">
<title>prd_taskmaster.cli_agent&#45;&gt;prd_taskmaster.llm_client</title>
<path fill="none" stroke="black" d="M582.47,-252.48C595.86,-261.32 612.27,-272.16 626.71,-281.7"/>
<polygon fill="black" stroke="black" points="634.85,-287.07 624.02,-285.31 631.69,-284.98 626.5,-281.56 626.5,-281.56 626.5,-281.56 631.69,-284.98 628.98,-277.8 634.85,-287.07"/>
</g>
<!-- prd_taskmaster.economy&#45;&gt;prd_taskmaster.lib -->
<g id="edge40" class="edge">
<title>prd_taskmaster.economy&#45;&gt;prd_taskmaster.lib</title>
<path fill="none" stroke="black" d="M631.73,-462.69C645.77,-464.62 660.31,-466.48 674,-468 893.71,-492.32 1154.99,-509.57 1277.32,-516.97"/>
<polygon fill="black" stroke="black" points="1287.15,-517.56 1276.9,-521.45 1283.38,-517.34 1277.17,-516.96 1277.17,-516.96 1277.17,-516.96 1283.38,-517.34 1277.44,-512.47 1287.15,-517.56"/>
</g>
<!-- prd_taskmaster.feedback&#45;&gt;prd_taskmaster.lib -->
<g id="edge41" class="edge">
<title>prd_taskmaster.feedback&#45;&gt;prd_taskmaster.lib</title>
<path fill="none" stroke="black" d="M2332.28,-252.49C2329.39,-297.13 2314.97,-415.45 2243,-468 2176.91,-516.25 1616.07,-521 1416.86,-521.15"/>
<polygon fill="black" stroke="black" points="1406.89,-521.16 1416.89,-516.65 1410.67,-521.16 1416.89,-521.15 1416.89,-521.15 1416.89,-521.15 1410.67,-521.16 1416.89,-525.65 1406.89,-521.16"/>
</g>
<!-- prd_taskmaster.fleet&#45;&gt;prd_taskmaster -->
<g id="edge42" class="edge">
<title>prd_taskmaster.fleet&#45;&gt;prd_taskmaster</title>
<path fill="none" stroke="black" d="M933.97,-396.48C948.75,-405.4 966.93,-416.37 982.83,-425.97"/>
<polygon fill="black" stroke="black" points="991.35,-431.11 980.47,-429.8 988.12,-429.16 982.79,-425.94 982.79,-425.94 982.79,-425.94 988.12,-429.16 985.12,-422.09 991.35,-431.11"/>
</g>
<!-- prd_taskmaster.fleet&#45;&gt;prd_taskmaster.economy -->
<g id="edge43" class="edge">
<title>prd_taskmaster.fleet&#45;&gt;prd_taskmaster.economy</title>
<path fill="none" stroke="black" d="M841.62,-391.68C785.96,-402.81 704.45,-419.11 642.57,-431.49"/>
<polygon fill="black" stroke="black" points="632.84,-433.43 641.76,-427.06 636.55,-432.69 642.64,-431.47 642.64,-431.47 642.64,-431.47 636.55,-432.69 643.53,-435.88 632.84,-433.43"/>
</g>
<!-- prd_taskmaster.fleet&#45;&gt;prd_taskmaster.lib -->
<g id="edge44" class="edge">
<title>prd_taskmaster.fleet&#45;&gt;prd_taskmaster.lib</title>
<path fill="none" stroke="black" d="M904.36,-396.33C904.64,-416.74 908.49,-450.13 929,-468 979.55,-512.05 1172.05,-520.19 1277.28,-521.26"/>
<polygon fill="black" stroke="black" points="1287.2,-521.34 1277.17,-525.76 1283.42,-521.31 1277.21,-521.26 1277.21,-521.26 1277.21,-521.26 1283.42,-521.31 1277.24,-516.76 1287.2,-521.34"/>
</g>
<!-- prd_taskmaster.fleet&#45;&gt;prd_taskmaster.parallel -->
<g id="edge45" class="edge">
<title>prd_taskmaster.fleet&#45;&gt;prd_taskmaster.parallel</title>
<path fill="none" stroke="black" d="M968.36,-396.39C1003.94,-406.16 1048.52,-418.4 1085.73,-428.61"/>
<polygon fill="black" stroke="black" points="1095.35,-431.25 1084.51,-432.94 1091.7,-430.25 1085.7,-428.61 1085.7,-428.61 1085.7,-428.61 1091.7,-430.25 1086.9,-424.27 1095.35,-431.25"/>
</g>
<!-- prd_taskmaster.llm_client&#45;&gt;prd_taskmaster.economy -->
<g id="edge46" class="edge">
<title>prd_taskmaster.llm_client&#45;&gt;prd_taskmaster.economy</title>
<path fill="none" stroke="black" d="M648.88,-324.41C630.25,-349.14 596,-394.59 574.42,-423.23"/>
<polygon fill="black" stroke="black" points="568.63,-430.92 571.05,-420.22 570.9,-427.9 574.64,-422.93 574.64,-422.93 574.64,-422.93 570.9,-427.9 578.24,-425.64 568.63,-430.92"/>
</g>
<!-- prd_taskmaster.llm_client&#45;&gt;prd_taskmaster.lib -->
<g id="edge47" class="edge">
<title>prd_taskmaster.llm_client&#45;&gt;prd_taskmaster.lib</title>
<path fill="none" stroke="black" d="M669.1,-324.4C684.13,-358.72 722.73,-434.7 782,-468 865.15,-514.72 1145.68,-521.09 1277.49,-521.41"/>
<polygon fill="black" stroke="black" points="1287.41,-521.43 1277.41,-525.91 1283.63,-521.42 1277.41,-521.41 1277.41,-521.41 1277.41,-521.41 1283.63,-521.42 1277.42,-516.91 1287.41,-521.43"/>
</g>
<!-- prd_taskmaster.mode_recommend&#45;&gt;prd_taskmaster.fleet -->
<g id="edge48" class="edge">
<title>prd_taskmaster.mode_recommend&#45;&gt;prd_taskmaster.fleet</title>
<path fill="none" stroke="black" d="M363.26,-252.5C412.91,-272.44 498.18,-304.76 574,-324 660.83,-346.03 762.91,-360.73 830.51,-368.95"/>
<polygon fill="black" stroke="black" points="840.26,-370.12 829.8,-373.4 836.51,-369.67 830.34,-368.93 830.34,-368.93 830.34,-368.93 836.51,-369.67 830.87,-364.46 840.26,-370.12"/>
</g>
<!-- prd_taskmaster.mode_recommend&#45;&gt;prd_taskmaster.providers -->
<g id="edge49" class="edge">
<title>prd_taskmaster.mode_recommend&#45;&gt;prd_taskmaster.providers</title>
<path fill="none" stroke="black" d="M324.21,-252.3C325.6,-259.76 327.25,-268.68 328.81,-277.03"/>
<polygon fill="black" stroke="black" points="330.6,-286.7 324.35,-277.69 329.91,-282.98 328.78,-276.87 328.78,-276.87 328.78,-276.87 329.91,-282.98 333.2,-276.04 330.6,-286.7"/>
</g>
<!-- prd_taskmaster.pipeline -->
<g id="node15" class="node">
<title>prd_taskmaster.pipeline</title>
<polygon fill="none" stroke="black" points="1470.88,-468 1325.12,-468 1325.12,-432 1470.88,-432 1470.88,-468"/>
<text xml:space="preserve" text-anchor="start" x="1333.12" y="-445.5" font-family="Times,serif" font-size="14.00">prd_taskmaster.pipeline</text>
</g>
<!-- prd_taskmaster.pipeline&#45;&gt;prd_taskmaster.lib -->
<g id="edge50" class="edge">
<title>prd_taskmaster.pipeline&#45;&gt;prd_taskmaster.lib</title>
<path fill="none" stroke="black" d="M1385.39,-468.3C1379.53,-476.36 1372.42,-486.11 1365.93,-495.02"/>
<polygon fill="black" stroke="black" points="1360.18,-502.91 1362.43,-492.18 1362.41,-499.85 1366.07,-494.83 1366.07,-494.83 1366.07,-494.83 1362.41,-499.85 1369.7,-497.48 1360.18,-502.91"/>
</g>
<!-- prd_taskmaster.preflight&#45;&gt;prd_taskmaster.lib -->
<g id="edge51" class="edge">
<title>prd_taskmaster.preflight&#45;&gt;prd_taskmaster.lib</title>
<path fill="none" stroke="black" d="M1786.97,-180.08C1815.38,-210.18 1876.99,-274.21 1933,-324 1961.84,-349.64 2052.22,-397.25 2069,-432 2075.96,-446.41 2079.89,-456.28 2069,-468 2025.18,-515.16 1589.07,-520.78 1416.64,-521.15"/>
<polygon fill="black" stroke="black" points="1406.89,-521.16 1416.88,-516.64 1410.67,-521.15 1416.89,-521.14 1416.89,-521.14 1416.89,-521.14 1410.67,-521.15 1416.89,-525.64 1406.89,-521.16"/>
</g>
<!-- prd_taskmaster.provider_resolver&#45;&gt;prd_taskmaster.fleet -->
<g id="edge52" class="edge">
<title>prd_taskmaster.provider_resolver&#45;&gt;prd_taskmaster.fleet</title>
<path fill="none" stroke="black" d="M801.47,-252.41C822.1,-277.24 860.12,-322.99 883.89,-351.6"/>
<polygon fill="black" stroke="black" points="890,-358.95 880.15,-354.14 887.59,-356.04 883.61,-351.26 883.61,-351.26 883.61,-351.26 887.59,-356.04 887.07,-348.38 890,-358.95"/>
</g>
<!-- prd_taskmaster.provider_resolver&#45;&gt;prd_taskmaster.lib -->
<g id="edge53" class="edge">
<title>prd_taskmaster.provider_resolver&#45;&gt;prd_taskmaster.lib</title>
<path fill="none" stroke="black" d="M789.01,-252.09C793.22,-282.77 804.99,-348.4 833,-396 855.95,-435 864.3,-448.22 905,-468 969.03,-499.12 1169.81,-512.9 1277.36,-518.18"/>
<polygon fill="black" stroke="black" points="1287.2,-518.65 1276.99,-522.66 1283.42,-518.47 1277.21,-518.17 1277.21,-518.17 1277.21,-518.17 1283.42,-518.47 1277.42,-513.67 1287.2,-518.65"/>
</g>
<!-- prd_taskmaster.provider_resolver&#45;&gt;prd_taskmaster.llm_client -->
<g id="edge54" class="edge">
<title>prd_taskmaster.provider_resolver&#45;&gt;prd_taskmaster.llm_client</title>
<path fill="none" stroke="black" d="M755.78,-252.48C739.55,-261.57 719.53,-272.78 702.16,-282.51"/>
<polygon fill="black" stroke="black" points="693.89,-287.14 700.41,-278.33 697.18,-285.3 702.61,-282.26 702.61,-282.26 702.61,-282.26 697.18,-285.3 704.81,-286.18 693.89,-287.14"/>
</g>
<!-- prd_taskmaster.provider_resolver&#45;&gt;prd_taskmaster.providers -->
<g id="edge55" class="edge">
<title>prd_taskmaster.provider_resolver&#45;&gt;prd_taskmaster.providers</title>
<path fill="none" stroke="black" d="M687.59,-250.36C608.28,-262.62 498.23,-279.62 422.06,-291.39"/>
<polygon fill="black" stroke="black" points="412.28,-292.9 421.47,-286.93 416.02,-292.33 422.16,-291.38 422.16,-291.38 422.16,-291.38 416.02,-292.33 422.85,-295.82 412.28,-292.9"/>
</g>
<!-- prd_taskmaster.providers&#45;&gt;prd_taskmaster.economy -->
<g id="edge56" class="edge">
<title>prd_taskmaster.providers&#45;&gt;prd_taskmaster.economy</title>
<path fill="none" stroke="black" d="M351.18,-324.41C370.87,-343.69 404.72,-374.83 438,-396 456.83,-407.98 478.81,-418.69 498.61,-427.29"/>
<polygon fill="black" stroke="black" points="507.61,-431.12 496.65,-431.35 504.13,-429.64 498.41,-427.21 498.41,-427.21 498.41,-427.21 504.13,-429.64 500.17,-423.07 507.61,-431.12"/>
</g>
<!-- prd_taskmaster.providers&#45;&gt;prd_taskmaster.fleet -->
<g id="edge57" class="edge">
<title>prd_taskmaster.providers&#45;&gt;prd_taskmaster.fleet</title>
<path fill="none" stroke="black" d="M411.01,-316.44C521.08,-329.93 722.05,-354.57 830.64,-367.88"/>
<polygon fill="black" stroke="black" points="840.29,-369.07 829.81,-372.32 836.53,-368.61 830.36,-367.85 830.36,-367.85 830.36,-367.85 836.53,-368.61 830.91,-363.38 840.29,-369.07"/>
</g>
<!-- prd_taskmaster.providers&#45;&gt;prd_taskmaster.lib -->
<g id="edge58" class="edge">
<title>prd_taskmaster.providers&#45;&gt;prd_taskmaster.lib</title>
<path fill="none" stroke="black" d="M341.73,-324.31C358.78,-359.92 403.43,-440.36 470,-468 543.68,-498.59 1082.63,-514.58 1277.2,-519.4"/>
<polygon fill="black" stroke="black" points="1287.19,-519.65 1277.08,-523.9 1283.41,-519.55 1277.19,-519.4 1277.19,-519.4 1277.19,-519.4 1283.41,-519.55 1277.3,-514.9 1287.19,-519.65"/>
</g>
<!-- prd_taskmaster.render -->
<g id="node19" class="node">
<title>prd_taskmaster.render</title>
<polygon fill="none" stroke="black" points="1885.38,-468 1748.62,-468 1748.62,-432 1885.38,-432 1885.38,-468"/>
<text xml:space="preserve" text-anchor="start" x="1756.62" y="-445.5" font-family="Times,serif" font-size="14.00">prd_taskmaster.render</text>
</g>
<!-- prd_taskmaster.setup_wizard&#45;&gt;prd_taskmaster -->
<g id="edge59" class="edge">
<title>prd_taskmaster.setup_wizard&#45;&gt;prd_taskmaster</title>
<path fill="none" stroke="black" d="M601.57,-164.65C705.11,-168.25 869.51,-179.71 918,-216 985.36,-266.42 1009.49,-370.58 1017.44,-420.76"/>
<polygon fill="black" stroke="black" points="1018.87,-430.53 1012.97,-421.29 1018.32,-426.79 1017.42,-420.64 1017.42,-420.64 1017.42,-420.64 1018.32,-426.79 1021.87,-419.98 1018.87,-430.53"/>
</g>
<!-- prd_taskmaster.setup_wizard&#45;&gt;prd_taskmaster.fleet -->
<g id="edge60" class="edge">
<title>prd_taskmaster.setup_wizard&#45;&gt;prd_taskmaster.fleet</title>
<path fill="none" stroke="black" d="M601.48,-162.84C701.52,-164.68 856.48,-174.42 895,-216 928.15,-251.78 920.82,-313.38 912.75,-349.12"/>
<polygon fill="black" stroke="black" points="910.44,-358.57 908.45,-347.78 911.34,-354.89 912.82,-348.85 912.82,-348.85 912.82,-348.85 911.34,-354.89 917.19,-349.92 910.44,-358.57"/>
</g>
<!-- prd_taskmaster.setup_wizard&#45;&gt;prd_taskmaster.lib -->
<g id="edge61" class="edge">
<title>prd_taskmaster.setup_wizard&#45;&gt;prd_taskmaster.lib</title>
<path fill="none" stroke="black" d="M426.47,-166.99C361.55,-172.47 272.02,-185.43 199,-216 136.76,-242.06 76,-237.52 76,-305 76,-305 76,-305 76,-379 76,-500.96 1012.27,-518.17 1277.65,-520.6"/>
<polygon fill="black" stroke="black" points="1287.45,-520.69 1277.41,-525.1 1283.67,-520.65 1277.45,-520.6 1277.45,-520.6 1277.45,-520.6 1283.67,-520.65 1277.49,-516.1 1287.45,-520.69"/>
</g>
<!-- prd_taskmaster.setup_wizard&#45;&gt;prd_taskmaster.mode_recommend -->
<g id="edge62" class="edge">
<title>prd_taskmaster.setup_wizard&#45;&gt;prd_taskmaster.mode_recommend</title>
<path fill="none" stroke="black" d="M465.8,-180.48C439.56,-190 406.91,-201.84 379.25,-211.87"/>
<polygon fill="black" stroke="black" points="370.07,-215.2 377.94,-207.56 373.62,-213.91 379.47,-211.79 379.47,-211.79 379.47,-211.79 373.62,-213.91 381,-216.02 370.07,-215.2"/>
</g>
<!-- prd_taskmaster.setup_wizard&#45;&gt;prd_taskmaster.providers -->
<g id="edge63" class="edge">
<title>prd_taskmaster.setup_wizard&#45;&gt;prd_taskmaster.providers</title>
<path fill="none" stroke="black" d="M426.39,-172.52C341.63,-182.63 223.94,-199.42 210,-216 199.7,-228.25 201.19,-238.65 210,-252 219.05,-265.7 232.44,-275.88 247.13,-283.43"/>
<polygon fill="black" stroke="black" points="255.83,-287.5 244.86,-287.33 252.4,-285.9 246.77,-283.26 246.77,-283.26 246.77,-283.26 252.4,-285.9 248.68,-279.18 255.83,-287.5"/>
</g>
<!-- prd_taskmaster.shipcheck -->
<g id="node21" class="node">
<title>prd_taskmaster.shipcheck</title>
<polygon fill="none" stroke="black" points="2060.12,-468 1903.88,-468 1903.88,-432 2060.12,-432 2060.12,-468"/>
<text xml:space="preserve" text-anchor="start" x="1911.88" y="-445.5" font-family="Times,serif" font-size="14.00">prd_taskmaster.shipcheck</text>
</g>
<!-- prd_taskmaster.status&#45;&gt;prd_taskmaster -->
<g id="edge64" class="edge">
<title>prd_taskmaster.status&#45;&gt;prd_taskmaster</title>
<path fill="none" stroke="black" d="M1651.3,-380.21C1536.51,-383.25 1294.27,-393.78 1081.79,-431.9"/>
<polygon fill="black" stroke="black" points="1072.25,-433.63 1081.28,-427.41 1075.97,-432.95 1082.09,-431.84 1082.09,-431.84 1082.09,-431.84 1075.97,-432.95 1082.89,-436.27 1072.25,-433.63"/>
</g>
<!-- prd_taskmaster.status&#45;&gt;prd_taskmaster.lib -->
<g id="edge65" class="edge">
<title>prd_taskmaster.status&#45;&gt;prd_taskmaster.lib</title>
<path fill="none" stroke="black" d="M1719.2,-396.19C1719.59,-416.46 1716.84,-449.71 1697,-468 1657.25,-504.64 1506.87,-515.95 1416.66,-519.44"/>
<polygon fill="black" stroke="black" points="1406.92,-519.79 1416.75,-514.93 1410.7,-519.66 1416.91,-519.43 1416.91,-519.43 1416.91,-519.43 1410.7,-519.66 1417.07,-523.93 1406.92,-519.79"/>
</g>
<!-- prd_taskmaster.status&#45;&gt;prd_taskmaster.pipeline -->
<g id="edge66" class="edge">
<title>prd_taskmaster.status&#45;&gt;prd_taskmaster.pipeline</title>
<path fill="none" stroke="black" d="M1651.31,-393.59C1602.13,-404.35 1534.86,-419.06 1482.01,-430.62"/>
<polygon fill="black" stroke="black" points="1472.49,-432.7 1481.3,-426.17 1476.19,-431.9 1482.26,-430.57 1482.26,-430.57 1482.26,-430.57 1476.19,-431.9 1483.22,-434.96 1472.49,-432.7"/>
</g>
<!-- prd_taskmaster.status&#45;&gt;prd_taskmaster.render -->
<g id="edge67" class="edge">
<title>prd_taskmaster.status&#45;&gt;prd_taskmaster.render</title>
<path fill="none" stroke="black" d="M1742.73,-396.48C1755.1,-405.24 1770.27,-415.96 1783.66,-425.42"/>
<polygon fill="black" stroke="black" points="1791.59,-431.04 1780.83,-428.94 1788.51,-428.85 1783.43,-425.26 1783.43,-425.26 1783.43,-425.26 1788.51,-428.85 1786.03,-421.59 1791.59,-431.04"/>
</g>
<!-- prd_taskmaster.status&#45;&gt;prd_taskmaster.shipcheck -->
<g id="edge68" class="edge">
<title>prd_taskmaster.status&#45;&gt;prd_taskmaster.shipcheck</title>
<path fill="none" stroke="black" d="M1783.94,-396.48C1820.93,-406.29 1867.25,-418.57 1905.8,-428.79"/>
<polygon fill="black" stroke="black" points="1915.27,-431.31 1904.45,-433.09 1911.61,-430.34 1905.6,-428.74 1905.6,-428.74 1905.6,-428.74 1911.61,-430.34 1906.76,-424.39 1915.27,-431.31"/>
</g>
<!-- prd_taskmaster.suggestions -->
<g id="node23" class="node">
<title>prd_taskmaster.suggestions</title>
<polygon fill="none" stroke="black" points="1654.62,-468 1489.38,-468 1489.38,-432 1654.62,-432 1654.62,-468"/>
<text xml:space="preserve" text-anchor="start" x="1497.38" y="-445.5" font-family="Times,serif" font-size="14.00">prd_taskmaster.suggestions</text>
</g>
<!-- prd_taskmaster.suggestions&#45;&gt;prd_taskmaster.lib -->
<g id="edge69" class="edge">
<title>prd_taskmaster.suggestions&#45;&gt;prd_taskmaster.lib</title>
<path fill="none" stroke="black" d="M1515.8,-468.48C1484.68,-478.17 1445.81,-490.26 1413.21,-500.4"/>
<polygon fill="black" stroke="black" points="1404.03,-503.26 1412.24,-495.99 1407.64,-502.13 1413.58,-500.29 1413.58,-500.29 1413.58,-500.29 1407.64,-502.13 1414.92,-504.58 1404.03,-503.26"/>
</g>
<!-- prd_taskmaster.task_state&#45;&gt;prd_taskmaster -->
<g id="edge70" class="edge">
<title>prd_taskmaster.task_state&#45;&gt;prd_taskmaster</title>
<path fill="none" stroke="black" d="M1341.81,-324.37C1317.39,-344.5 1274.27,-377.3 1232,-396 1171.61,-422.71 1149.34,-415.24 1081.64,-431.72"/>
<polygon fill="black" stroke="black" points="1072.03,-434.16 1080.62,-427.34 1075.69,-433.23 1081.72,-431.7 1081.72,-431.7 1081.72,-431.7 1075.69,-433.23 1082.83,-436.06 1072.03,-434.16"/>
</g>
<!-- prd_taskmaster.task_state&#45;&gt;prd_taskmaster.fleet -->
<g id="edge71" class="edge">
<title>prd_taskmaster.task_state&#45;&gt;prd_taskmaster.fleet</title>
<path fill="none" stroke="black" d="M1283.96,-318.95C1198.69,-332.01 1063.1,-352.78 979.32,-365.62"/>
<polygon fill="black" stroke="black" points="969.57,-367.11 978.77,-361.15 973.31,-366.54 979.45,-365.6 979.45,-365.6 979.45,-365.6 973.31,-366.54 980.13,-370.04 969.57,-367.11"/>
</g>
<!-- prd_taskmaster.task_state&#45;&gt;prd_taskmaster.lib -->
<g id="edge72" class="edge">
<title>prd_taskmaster.task_state&#45;&gt;prd_taskmaster.lib</title>
<path fill="none" stroke="black" d="M1440.01,-315.33C1511.8,-327.6 1614.42,-357.81 1664,-432 1672.89,-445.3 1674.34,-455.79 1664,-468 1632.98,-504.64 1500.41,-515.97 1416.85,-519.46"/>
<polygon fill="black" stroke="black" points="1406.87,-519.85 1416.68,-514.96 1410.64,-519.7 1416.86,-519.46 1416.86,-519.46 1416.86,-519.46 1410.64,-519.7 1417.03,-523.96 1406.87,-519.85"/>
</g>
<!-- prd_taskmaster.task_state&#45;&gt;prd_taskmaster.parallel -->
<g id="edge73" class="edge">
<title>prd_taskmaster.task_state&#45;&gt;prd_taskmaster.parallel</title>
<path fill="none" stroke="black" d="M1357.39,-324.21C1351.19,-344.18 1338.28,-376.83 1316,-396 1303.43,-406.82 1270.24,-418.71 1237.7,-428.48"/>
<polygon fill="black" stroke="black" points="1228.35,-431.23 1236.67,-424.09 1231.97,-430.17 1237.94,-428.41 1237.94,-428.41 1237.94,-428.41 1231.97,-430.17 1239.21,-432.73 1228.35,-431.23"/>
</g>
<!-- prd_taskmaster.taskmaster&#45;&gt;prd_taskmaster.lib -->
<g id="edge74" class="edge">
<title>prd_taskmaster.taskmaster&#45;&gt;prd_taskmaster.lib</title>
<path fill="none" stroke="black" d="M2027.33,-324.18C2033.67,-342.97 2045.53,-373.42 2062,-396 2076.09,-415.32 2092.27,-410.15 2102,-432 2108.51,-446.62 2112.91,-456.3 2102,-468 2055.84,-517.52 1594.74,-521.66 1416.66,-521.39"/>
<polygon fill="black" stroke="black" points="1406.82,-521.37 1416.83,-516.89 1410.6,-521.38 1416.82,-521.39 1416.82,-521.39 1416.82,-521.39 1410.6,-521.38 1416.81,-525.89 1406.82,-521.37"/>
</g>
<!-- prd_taskmaster.tasks&#45;&gt;prd_taskmaster.lib -->
<g id="edge75" class="edge">
<title>prd_taskmaster.tasks&#45;&gt;prd_taskmaster.lib</title>
<path fill="none" stroke="black" d="M2143.26,-396.24C2150.39,-416.24 2157.86,-448.91 2140,-468 2091.15,-520.22 1601.5,-522.62 1416.91,-521.65"/>
<polygon fill="black" stroke="black" points="1406.94,-521.59 1416.97,-517.15 1410.73,-521.61 1416.94,-521.65 1416.94,-521.65 1416.94,-521.65 1410.73,-521.61 1416.92,-526.15 1406.94,-521.59"/>
</g>
<!-- prd_taskmaster.templates&#45;&gt;prd_taskmaster.lib -->
<g id="edge76" class="edge">
<title>prd_taskmaster.templates&#45;&gt;prd_taskmaster.lib</title>
<path fill="none" stroke="black" d="M2229,-108.49C2229,-135.29 2229,-188.13 2229,-233 2229,-233 2229,-233 2229,-379 2229,-429.05 2204.2,-444.52 2160,-468 2095.23,-502.4 1601.76,-515.85 1416.75,-519.71"/>
<polygon fill="black" stroke="black" points="1406.77,-519.92 1416.67,-515.22 1410.55,-519.84 1416.76,-519.71 1416.76,-519.71 1416.76,-519.71 1410.55,-519.84 1416.86,-524.21 1406.77,-519.92"/>
</g>
<!-- prd_taskmaster.validation&#45;&gt;prd_taskmaster.lib -->
<g id="edge77" class="edge">
<title>prd_taskmaster.validation&#45;&gt;prd_taskmaster.lib</title>
<path fill="none" stroke="black" d="M1563.94,-252.34C1564.71,-285.54 1561.26,-358.16 1520,-396 1452.15,-458.23 1375.18,-361.47 1316,-432 1300.91,-449.99 1312.48,-475.78 1325.56,-494.97"/>
<polygon fill="black" stroke="black" points="1331.28,-502.81 1321.75,-497.38 1329.05,-499.76 1325.39,-494.73 1325.39,-494.73 1325.39,-494.73 1329.05,-499.76 1329.03,-492.08 1331.28,-502.81"/>
</g>
<!-- prd_taskmaster.validation&#45;&gt;prd_taskmaster.pipeline -->
<g id="edge78" class="edge">
<title>prd_taskmaster.validation&#45;&gt;prd_taskmaster.pipeline</title>
<path fill="none" stroke="black" d="M1568.31,-252.34C1576.93,-284.28 1590.02,-353.08 1558,-396 1548.05,-409.33 1515.38,-421.28 1482.13,-430.44"/>
<polygon fill="black" stroke="black" points="1472.52,-433 1481.03,-426.07 1476.18,-432.02 1482.19,-430.42 1482.19,-430.42 1482.19,-430.42 1476.18,-432.02 1483.35,-434.77 1472.52,-433"/>
</g>
</g>
</svg>
